<svg xmlns="http://www.w3.org/2000/svg" xmlns:xlink="http://www.w3.org/1999/xlink" width="400" zoomAndPan="magnify" viewBox="0 0 300 149.999998" height="200" preserveAspectRatio="xMidYMid meet" version="1.2"><defs><clipPath id="7affde23f3"><path d="M 247 62 L 258 62 L 258 110 L 247 110 Z M 247 62 "/></clipPath><clipPath id="cd9ab922de"><path d="M 235.953125 65.855469 L 250.949219 61.984375 L 263.203125 109.476562 L 248.207031 113.347656 Z M 235.953125 65.855469 "/></clipPath><clipPath id="a7d1736774"><path d="M 235.953125 65.855469 L 250.949219 61.984375 L 263.203125 109.476562 L 248.207031 113.347656 Z M 235.953125 65.855469 "/></clipPath><clipPath id="a0b4052856"><path d="M 259 43 L 274 43 L 274 56 L 259 56 Z M 259 43 "/></clipPath><clipPath id="2a7a0cad51"><path d="M 261.972656 41.105469 L 275.617188 45.027344 L 272.050781 57.433594 L 258.40625 53.511719 Z M 261.972656 41.105469 "/></clipPath><clipPath id="8ab743c8e7"><path d="M 261.972656 41.105469 L 275.617188 45.027344 L 272.050781 57.433594 L 258.40625 53.511719 Z M 261.972656 41.105469 "/></clipPath><clipPath id="0ba0ac8dac"><path d="M 242 43 L 257 43 L 257 56 L 242 56 Z M 242 43 "/></clipPath><clipPath id="281eb3e241"><path d="M 246.125 41.105469 L 258.742188 47.609375 L 252.832031 59.082031 L 240.210938 52.578125 Z M 246.125 41.105469 "/></clipPath><clipPath id="235d70f968"><path d="M 246.125 41.105469 L 258.742188 47.609375 L 252.832031 59.082031 L 240.210938 52.578125 Z M 246.125 41.105469 "/></clipPath><clipPath id="47496f8c51"><path d="M 259 53 L 274 53 L 274 67 L 259 67 Z M 259 53 "/></clipPath><clipPath id="a2a4b0d9f2"><path d="M 263.167969 51.292969 L 275.789062 57.796875 L 269.875 69.269531 L 257.257812 62.765625 Z M 263.167969 51.292969 "/></clipPath><clipPath id="2676c7d7d6"><path d="M 263.167969 51.292969 L 275.789062 57.796875 L 269.875 69.269531 L 257.257812 62.765625 Z M 263.167969 51.292969 "/></clipPath><clipPath id="11b36def9c"><path d="M 250 53.664062 L 262.640625 53.664062 L 262.640625 70.445312 L 250 70.445312 Z M 250 53.664062 "/></clipPath><clipPath id="0bed52fe74"><path d="M 242.292969 51.804688 L 256 51.804688 L 256 64.710938 L 242.292969 64.710938 Z M 242.292969 51.804688 "/></clipPath><clipPath id="41559d701b"><path d="M 250 37 L 265 37 L 265 66 L 250 66 Z M 250 37 "/></clipPath><clipPath id="1810f936ca"><path d="M 249.730469 65.519531 L 251.105469 37.15625 L 265.289062 37.84375 L 263.914062 66.203125 Z M 249.730469 65.519531 "/></clipPath><clipPath id="6d917b75ba"><path d="M 249.730469 65.519531 L 251.105469 37.15625 L 265.289062 37.84375 L 263.914062 66.203125 Z M 249.730469 65.519531 "/></clipPath><clipPath id="78d48e3644"><path d="M 228 69 L 243 69 L 243 82 L 228 82 Z M 228 69 "/></clipPath><clipPath id="c53883106c"><path d="M 238.511719 66.148438 L 244.128906 79.1875 L 232.277344 84.296875 L 226.65625 71.257812 Z M 238.511719 66.148438 "/></clipPath><clipPath id="6aa6716eed"><path d="M 238.511719 66.148438 L 244.128906 79.1875 L 232.277344 84.296875 L 226.65625 71.257812 Z M 238.511719 66.148438 "/></clipPath><clipPath id="e147028e27"><path d="M 222 53 L 234 53 L 234 67 L 222 67 Z M 222 53 "/></clipPath><clipPath id="72277d018c"><path d="M 233.625 52.617188 L 234.511719 66.789062 L 221.628906 67.59375 L 220.746094 53.421875 Z M 233.625 52.617188 "/></clipPath><clipPath id="4311c13a0e"><path d="M 233.625 52.617188 L 234.511719 66.789062 L 221.628906 67.59375 L 220.746094 53.421875 Z M 233.625 52.617188 "/></clipPath><clipPath id="e5f5d1456f"><path d="M 220 72 L 233 72 L 233 87 L 220 87 Z M 220 72 "/></clipPath><clipPath id="8c10053341"><path d="M 231.871094 72.367188 L 232.757812 86.539062 L 219.875 87.34375 L 218.988281 73.171875 Z M 231.871094 72.367188 "/></clipPath><clipPath id="78f64c2a1a"><path d="M 231.871094 72.367188 L 232.757812 86.539062 L 219.875 87.34375 L 218.988281 73.171875 Z M 231.871094 72.367188 "/></clipPath><clipPath id="3e789c7419"><path d="M 209 67 L 226 67 L 226 82 L 209 82 Z M 209 67 "/></clipPath><clipPath id="fb7fea0840"><path d="M 222.484375 65.09375 L 227.78125 76.863281 L 212.484375 83.753906 L 207.183594 71.984375 Z M 222.484375 65.09375 "/></clipPath><clipPath id="8322dd3844"><path d="M 222.484375 65.09375 L 227.78125 76.863281 L 212.484375 83.753906 L 207.183594 71.984375 Z M 222.484375 65.09375 "/></clipPath><clipPath id="660c00a70a"><path d="M 212 57 L 226 57 L 226 70 L 212 70 Z M 212 57 "/></clipPath><clipPath id="3065a1d610"><path d="M 220.851562 54.199219 L 228.128906 66.390625 L 217.046875 73.003906 L 209.769531 60.816406 Z M 220.851562 54.199219 "/></clipPath><clipPath id="56c314ab1d"><path d="M 220.851562 54.199219 L 228.128906 66.390625 L 217.046875 73.003906 L 209.769531 60.816406 Z M 220.851562 54.199219 "/></clipPath><clipPath id="e14dd970cb"><path d="M 217 61 L 244 61 L 244 80 L 217 80 Z M 217 61 "/></clipPath><clipPath id="47c2924c12"><path d="M 214.519531 70.820312 L 239.574219 57.457031 L 246.257812 69.984375 L 221.199219 83.347656 Z M 214.519531 70.820312 "/></clipPath><clipPath id="9332374e02"><path d="M 214.519531 70.820312 L 239.574219 57.457031 L 246.257812 69.984375 L 221.199219 83.347656 Z M 214.519531 70.820312 "/></clipPath><clipPath id="794bf27acc"><path d="M 253 50.417969 L 260.703125 50.417969 L 260.703125 58 L 253 58 Z M 253 50.417969 "/></clipPath><clipPath id="fea3b27c03"><path d="M 223.34375 67.21875 L 231 67.21875 L 231 74.964844 L 223.34375 74.964844 Z M 223.34375 67.21875 "/></clipPath><clipPath id="cbbe7f929c"><path d="M 176 53 L 189 53 L 189 111 L 176 111 Z M 176 53 "/></clipPath><clipPath id="fd146c8e5a"><path d="M 163.128906 57.328125 L 180.625 52.8125 L 195.136719 109.050781 L 177.640625 113.566406 Z M 163.128906 57.328125 "/></clipPath><clipPath id="f068f5ee68"><path d="M 163.128906 57.328125 L 180.625 52.8125 L 195.136719 109.050781 L 177.640625 113.566406 Z M 163.128906 57.328125 "/></clipPath><clipPath id="e9e9ca9ba3"><path d="M 148 46 L 162 46 L 162 109.960938 L 148 109.960938 Z M 148 46 "/></clipPath><clipPath id="67a0ef9c6a"><path d="M 149 26 L 166 26 L 166 40 L 149 40 Z M 149 26 "/></clipPath><clipPath id="62eb233815"><path d="M 152.097656 23.238281 L 166.984375 27.519531 L 162.707031 42.402344 L 147.820312 38.125 Z M 152.097656 23.238281 "/></clipPath><clipPath id="5e52dd731f"><path d="M 152.097656 23.238281 L 166.984375 27.519531 L 162.707031 42.402344 L 147.820312 38.125 Z M 152.097656 23.238281 "/></clipPath><clipPath id="b8ba05f7fe"><path d="M 129 25 L 146 25 L 146 41 L 129 41 Z M 129 25 "/></clipPath><clipPath id="50ca42c88f"><path d="M 133.402344 23.238281 L 148.320312 30.925781 L 141.8125 43.542969 L 126.898438 35.855469 Z M 133.402344 23.238281 "/></clipPath><clipPath id="35cbfcb433"><path d="M 133.402344 23.238281 L 148.320312 30.925781 L 141.8125 43.542969 L 126.898438 35.855469 Z M 133.402344 23.238281 "/></clipPath><clipPath id="b2b8081949"><path d="M 149 37 L 166 37 L 166 53 L 149 53 Z M 149 37 "/></clipPath><clipPath id="8aec3c66aa"><path d="M 153.511719 35.25 L 168.425781 42.9375 L 161.921875 55.558594 L 147.007812 47.871094 Z M 153.511719 35.25 "/></clipPath><clipPath id="df806f0e5d"><path d="M 153.511719 35.25 L 168.425781 42.9375 L 161.921875 55.558594 L 147.007812 47.871094 Z M 153.511719 35.25 "/></clipPath><clipPath id="89c6b1bea0"><path d="M 138 38.054688 L 153 38.054688 L 153 58 L 138 58 Z M 138 38.054688 "/></clipPath><clipPath id="f8c8d9ed7c"><path d="M 129 36 L 144.375 36 L 144.375 51 L 129 51 Z M 129 36 "/></clipPath><clipPath id="ce78d74f01"><path d="M 138 19 L 156 19 L 156 53 L 138 53 Z M 138 19 "/></clipPath><clipPath id="1dcd72dc09"><path d="M 137.667969 52.035156 L 139.289062 18.515625 L 156.050781 19.328125 L 154.425781 52.847656 Z M 137.667969 52.035156 "/></clipPath><clipPath id="c41ef903ae"><path d="M 137.667969 52.035156 L 139.289062 18.515625 L 156.050781 19.328125 L 154.425781 52.847656 Z M 137.667969 52.035156 "/></clipPath><clipPath id="a5f8ce9c80"><path d="M 188 56 L 205 56 L 205 71 L 188 71 Z M 188 56 "/></clipPath><clipPath id="6535ddee1d"><path d="M 200.46875 52.671875 L 206.597656 66.898438 L 192.375 73.027344 L 186.246094 58.804688 Z M 200.46875 52.671875 "/></clipPath><clipPath id="cfee70c3aa"><path d="M 200.46875 52.671875 L 206.597656 66.898438 L 192.375 73.027344 L 186.246094 58.804688 Z M 200.46875 52.671875 "/></clipPath><clipPath id="29592dba03"><path d="M 181 37 L 196 37 L 196 54 L 181 54 Z M 181 37 "/></clipPath><clipPath id="a7469e8fb6"><path d="M 194.710938 36.703125 L 195.757812 53.449219 L 181.589844 54.332031 L 180.542969 37.585938 Z M 194.710938 36.703125 "/></clipPath><clipPath id="83f69311a4"><path d="M 194.710938 36.703125 L 195.757812 53.449219 L 181.589844 54.332031 L 180.542969 37.585938 Z M 194.710938 36.703125 "/></clipPath><clipPath id="da6df7c7f2"><path d="M 179 60 L 193 60 L 193 77 L 179 77 Z M 179 60 "/></clipPath><clipPath id="9de6056991"><path d="M 192.644531 60 L 193.6875 76.746094 L 179.519531 77.628906 L 178.472656 60.882812 Z M 192.644531 60 "/></clipPath><clipPath id="e594562e76"><path d="M 192.644531 60 L 193.6875 76.746094 L 179.519531 77.628906 L 178.472656 60.882812 Z M 192.644531 60 "/></clipPath><clipPath id="ddc2a7f313"><path d="M 166 54 L 186 54 L 186 72 L 166 72 Z M 166 54 "/></clipPath><clipPath id="86e6a798a7"><path d="M 181.5625 51.417969 L 187.921875 65.542969 L 169.089844 74.019531 L 162.730469 59.898438 Z M 181.5625 51.417969 "/></clipPath><clipPath id="5357d405c2"><path d="M 181.5625 51.417969 L 187.921875 65.542969 L 169.089844 74.019531 L 162.730469 59.898438 Z M 181.5625 51.417969 "/></clipPath><clipPath id="0aaab13f7c"><path d="M 169 42 L 186 42 L 186 57 L 169 57 Z M 169 42 "/></clipPath><clipPath id="45651ad390"><path d="M 179.636719 38.574219 L 187.578125 51.875 L 174.28125 59.816406 L 166.339844 46.515625 Z M 179.636719 38.574219 "/></clipPath><clipPath id="2e41465860"><path d="M 179.636719 38.574219 L 187.578125 51.875 L 174.28125 59.816406 L 166.339844 46.515625 Z M 179.636719 38.574219 "/></clipPath><clipPath id="54912ca355"><path d="M 175 46 L 206 46 L 206 69 L 175 69 Z M 175 46 "/></clipPath><clipPath id="d48934f1af"><path d="M 172.171875 58.179688 L 201.785156 42.386719 L 209.679688 57.195312 L 180.066406 72.984375 Z M 172.171875 58.179688 "/></clipPath><clipPath id="708bbf8f51"><path d="M 172.171875 58.179688 L 201.785156 42.386719 L 209.679688 57.195312 L 180.066406 72.984375 Z M 172.171875 58.179688 "/></clipPath><clipPath id="400836c0d0"><path d="M 141.464844 34.222656 L 150.5 34.222656 L 150.5 43 L 141.464844 43 Z M 141.464844 34.222656 "/></clipPath><clipPath id="19bfb11953"><path d="M 182.578125 53.929688 L 191.613281 53.929688 L 191.613281 62.964844 L 182.578125 62.964844 Z M 182.578125 53.929688 "/></clipPath></defs><g id="a3677991d4"><g style="fill:#f9afa6;fill-opacity:1;"><g transform="translate(26.400064, 109.205413)"><path style="stroke:none" d="M 8.421875 0 C 5.441406 0 3.953125 -1.488281 3.953125 -4.46875 L 3.953125 -32 C 3.953125 -34.976562 5.441406 -36.46875 8.421875 -36.46875 L 9.375 -36.46875 C 12.351562 -36.46875 13.84375 -34.976562 13.84375 -32 L 13.84375 -4.46875 C 13.84375 -1.488281 12.351562 0 9.375 0 Z M 8.421875 0 "/></g></g><g style="fill:#f9afa6;fill-opacity:1;"><g transform="translate(47.342378, 109.205413)"><path style="stroke:none" d="M 7.84375 0 C 6.332031 0 5.207031 -0.410156 4.46875 -1.234375 C 3.738281 -2.054688 3.441406 -3.207031 3.578125 -4.6875 L 3.6875 -6.203125 C 4.03125 -9.960938 4.71875 -12.972656 5.75 -15.234375 C 6.789062 -17.492188 8.15625 -19.082031 9.84375 -20 L 9.84375 -20.203125 C 8.789062 -20.910156 7.847656 -21.742188 7.015625 -22.703125 C 6.191406 -23.671875 5.5 -24.878906 4.9375 -26.328125 C 4.382812 -27.785156 3.96875 -29.601562 3.6875 -31.78125 C 3.507812 -33.257812 3.785156 -34.398438 4.515625 -35.203125 C 5.253906 -36.015625 6.378906 -36.421875 7.890625 -36.421875 L 10 -36.421875 C 12.769531 -36.421875 14.347656 -34.910156 14.734375 -31.890625 C 15.085938 -29.429688 15.421875 -27.519531 15.734375 -26.15625 C 16.046875 -24.789062 16.429688 -23.828125 16.890625 -23.265625 C 17.347656 -22.703125 17.960938 -22.421875 18.734375 -22.421875 C 19.472656 -22.421875 20.085938 -22.679688 20.578125 -23.203125 C 21.066406 -23.734375 21.457031 -24.664062 21.75 -26 C 22.050781 -27.332031 22.222656 -29.191406 22.265625 -31.578125 C 22.328125 -34.804688 23.800781 -36.421875 26.6875 -36.421875 L 28.046875 -36.421875 C 29.554688 -36.421875 30.675781 -36.015625 31.40625 -35.203125 C 32.144531 -34.398438 32.429688 -33.257812 32.265625 -31.78125 C 31.628906 -28.519531 30.8125 -26.03125 29.8125 -24.3125 C 28.8125 -22.59375 27.414062 -21.222656 25.625 -20.203125 L 25.625 -20 C 27.414062 -19.050781 28.816406 -17.425781 29.828125 -15.125 C 30.847656 -12.832031 31.660156 -9.859375 32.265625 -6.203125 L 32.359375 -4.6875 C 32.503906 -3.207031 32.207031 -2.054688 31.46875 -1.234375 C 30.726562 -0.410156 29.609375 0 28.109375 0 L 26.15625 0 C 23.382812 0 21.84375 -1.539062 21.53125 -4.625 C 21.175781 -8.175781 20.601562 -10.648438 19.8125 -12.046875 C 19.019531 -13.453125 18.007812 -14.15625 16.78125 -14.15625 C 15.625 -14.15625 14.773438 -13.476562 14.234375 -12.125 C 13.691406 -10.78125 13.382812 -8.332031 13.3125 -4.78125 C 13.238281 -1.59375 11.75 0 8.84375 0 Z M 7.84375 0 "/></g></g><g style="fill:#f9afa6;fill-opacity:1;"><g transform="translate(86.437945, 109.205413)"><path style="stroke:none" d="M 8.421875 0 C 5.441406 0 3.953125 -1.488281 3.953125 -4.46875 L 3.953125 -32 C 3.953125 -34.976562 5.441406 -36.46875 8.421875 -36.46875 L 9.375 -36.46875 C 12.351562 -36.46875 13.84375 -34.976562 13.84375 -32 L 13.84375 -4.46875 C 13.84375 -1.488281 12.351562 0 9.375 0 Z M 8.421875 0 "/></g></g><g style="fill:#f9afa6;fill-opacity:1;"><g transform="translate(107.380259, 109.205413)"><path style="stroke:none" d="M 16.78125 -37 C 19.0625 -37 21.0625 -36.460938 22.78125 -35.390625 C 24.5 -34.316406 25.9375 -32.550781 27.09375 -30.09375 C 28.257812 -27.644531 29.148438 -24.347656 29.765625 -20.203125 C 30.378906 -16.066406 30.738281 -10.910156 30.84375 -4.734375 C 30.875 -3.222656 30.503906 -2.054688 29.734375 -1.234375 C 28.960938 -0.410156 27.859375 0 26.421875 0 L 25.625 0 C 22.644531 0 21.15625 -1.367188 21.15625 -4.109375 C 21.15625 -4.804688 21.15625 -5.488281 21.15625 -6.15625 C 21.15625 -6.820312 21.140625 -7.488281 21.109375 -8.15625 L 11.78125 -8.15625 C 11.78125 -7.59375 11.769531 -7.003906 11.75 -6.390625 C 11.738281 -5.773438 11.734375 -5.132812 11.734375 -4.46875 C 11.734375 -1.488281 10.257812 0 7.3125 0 C 5.90625 0 4.816406 -0.382812 4.046875 -1.15625 C 3.273438 -1.925781 2.910156 -3.050781 2.953125 -4.53125 C 2.984375 -5.96875 3.015625 -7.332031 3.046875 -8.625 C 3.085938 -9.925781 3.140625 -11.171875 3.203125 -12.359375 C 3.628906 -18.578125 4.410156 -23.484375 5.546875 -27.078125 C 6.691406 -30.671875 8.203125 -33.222656 10.078125 -34.734375 C 11.953125 -36.242188 14.1875 -37 16.78125 -37 Z M 11.890625 -14.421875 L 20.890625 -14.421875 C 20.679688 -18.347656 20.363281 -21.40625 19.9375 -23.59375 C 19.519531 -25.789062 18.984375 -27.335938 18.328125 -28.234375 C 17.679688 -29.128906 16.921875 -29.578125 16.046875 -29.578125 C 15.171875 -29.578125 14.441406 -29.128906 13.859375 -28.234375 C 13.285156 -27.335938 12.847656 -25.789062 12.546875 -23.59375 C 12.253906 -21.40625 12.035156 -18.347656 11.890625 -14.421875 Z M 11.890625 -14.421875 "/></g></g><path style="fill:none;stroke-width:4;stroke-linecap:butt;stroke-linejoin:miter;stroke:#fbdcd9;stroke-opacity:1;stroke-miterlimit:4;" d="M -0.00125804 2.00053 L 56.256067 2.001401 " transform="matrix(-0.0127266,-1.284902,1.284902,-0.0127266,17.929499,126.773843)"/><path style="fill:none;stroke-width:4;stroke-linecap:butt;stroke-linejoin:miter;stroke:#fbdcd9;stroke-opacity:1;stroke-miterlimit:4;" d="M -0.000514567 1.998814 L 67.753405 2.000662 " transform="matrix(-1.290689,-0.0056725,0.0056725,-1.290689,105.624716,128.189219)"/><path style="fill:none;stroke-width:4;stroke-linecap:butt;stroke-linejoin:miter;stroke:#fbdcd9;stroke-opacity:1;stroke-miterlimit:4;" d="M -0.000374181 1.999696 L 47.585268 1.999696 " transform="matrix(0.912664,-0.912664,0.912664,0.912664,17.261229,53.811328)"/><path style="fill:none;stroke-width:4;stroke-linecap:butt;stroke-linejoin:miter;stroke:#fbdcd9;stroke-opacity:1;stroke-miterlimit:4;" d="M -0.000542265 2.001131 L 47.576539 2.001131 " transform="matrix(0.912664,0.912664,-0.912664,0.912664,61.420605,10.400698)"/><g clip-rule="nonzero" clip-path="url(#7affde23f3)"><g clip-rule="nonzero" clip-path="url(#cd9ab922de)"><g clip-rule="nonzero" clip-path="url(#a7d1736774)"><path style=" stroke:none;fill-rule:nonzero;fill:#517564;fill-opacity:1;" d="M 256.847656 109.714844 C 256.535156 109.792969 256.164062 109.640625 255.925781 109.367188 C 241.195312 86.175781 249.476562 63.378906 249.570312 63.105469 C 249.726562 62.730469 250.171875 62.53125 250.625 62.667969 C 251.074219 62.800781 251.273438 63.25 251.0625 63.71875 C 251.023438 63.894531 242.972656 85.96875 257.367188 108.496094 C 257.625 108.847656 257.511719 109.375 257.160156 109.632812 C 257.082031 109.652344 257.003906 109.671875 256.847656 109.714844 Z M 256.847656 109.714844 "/></g></g></g><path style=" stroke:none;fill-rule:nonzero;fill:#517564;fill-opacity:1;" d="M 230.015625 109.957031 C 230.382812 109.957031 230.753906 109.679688 230.9375 109.3125 C 240.609375 79.46875 224.949219 56.621094 224.765625 56.34375 C 224.488281 55.976562 223.9375 55.882812 223.476562 56.160156 C 223.015625 56.4375 222.921875 56.988281 223.292969 57.449219 C 223.382812 57.636719 238.582031 79.742188 229.09375 108.761719 C 228.910156 109.222656 229.1875 109.773438 229.648438 109.957031 C 229.738281 109.957031 229.832031 109.957031 230.015625 109.957031 Z M 230.015625 109.957031 "/><g clip-rule="nonzero" clip-path="url(#a0b4052856)"><g clip-rule="nonzero" clip-path="url(#2a7a0cad51)"><g clip-rule="nonzero" clip-path="url(#8ab743c8e7)"><path style=" stroke:none;fill-rule:evenodd;fill:#fbdcd9;fill-opacity:1;" d="M 267.84375 43.679688 C 266.601562 44.023438 265.164062 44.832031 264.050781 45.304688 C 262.921875 45.773438 262.089844 45.917969 261.296875 46.710938 C 260.503906 47.503906 259.71875 48.957031 259.851562 50.460938 C 260 51.953125 261.054688 53.492188 262.84375 54.390625 C 264.625 55.296875 267.160156 55.566406 268.949219 55.015625 C 270.738281 54.476562 271.789062 53.097656 272.519531 51.523438 C 273.246094 49.945312 273.636719 48.167969 273.371094 46.808594 C 273.117188 45.453125 272.191406 44.53125 271.199219 44.003906 C 270.191406 43.46875 269.101562 43.339844 267.84375 43.679688 Z M 267.84375 43.679688 "/></g></g></g><g clip-rule="nonzero" clip-path="url(#0ba0ac8dac)"><g clip-rule="nonzero" clip-path="url(#281eb3e241)"><g clip-rule="nonzero" clip-path="url(#235d70f968)"><path style=" stroke:none;fill-rule:evenodd;fill:#fbdcd9;fill-opacity:1;" d="M 252.5625 44.671875 C 250.992188 43.617188 249.273438 43.0625 247.582031 43.476562 C 245.910156 43.882812 244.285156 45.226562 243.355469 46.757812 C 242.433594 48.269531 242.21875 49.953125 243.398438 51.726562 C 244.59375 53.503906 247.203125 55.375 249.523438 55.796875 C 251.847656 56.238281 253.902344 55.21875 255.074219 53.835938 C 256.253906 52.4375 256.554688 50.65625 256.023438 48.988281 C 255.484375 47.304688 254.109375 45.734375 252.5625 44.671875 Z M 252.5625 44.671875 "/></g></g></g><g clip-rule="nonzero" clip-path="url(#47496f8c51)"><g clip-rule="nonzero" clip-path="url(#a2a4b0d9f2)"><g clip-rule="nonzero" clip-path="url(#2676c7d7d6)"><path style=" stroke:none;fill-rule:evenodd;fill:#fbdcd9;fill-opacity:1;" d="M 269.609375 54.855469 C 268.039062 53.800781 266.320312 53.25 264.625 53.660156 C 262.957031 54.066406 261.332031 55.414062 260.402344 56.941406 C 259.480469 58.457031 259.265625 60.140625 260.445312 61.910156 C 261.640625 63.6875 264.25 65.5625 266.570312 65.980469 C 268.894531 66.421875 270.949219 65.40625 272.121094 64.019531 C 273.300781 62.621094 273.601562 60.839844 273.070312 59.175781 C 272.53125 57.488281 271.15625 55.917969 269.609375 54.855469 Z M 269.609375 54.855469 "/></g></g></g><g clip-rule="nonzero" clip-path="url(#11b36def9c)"><path style=" stroke:none;fill-rule:evenodd;fill:#fbdcd9;fill-opacity:1;" d="M 257.453125 54.007812 C 255.890625 53.664062 254.515625 53.933594 253.335938 54.5625 C 252.152344 55.171875 251.144531 56.164062 250.53125 58.335938 C 249.941406 60.511719 249.730469 63.902344 250.53125 66.171875 C 251.351562 68.460938 253.164062 69.644531 255.011719 70.042969 C 256.882812 70.445312 258.769531 70.0625 260.046875 69.300781 C 261.304688 68.535156 261.953125 67.394531 262.257812 65.164062 C 262.5625 62.933594 262.523438 59.613281 261.648438 57.480469 C 260.75 55.324219 259.015625 54.371094 257.453125 54.007812 Z M 257.453125 54.007812 "/></g><g clip-rule="nonzero" clip-path="url(#0bed52fe74)"><path style=" stroke:none;fill-rule:evenodd;fill:#fbdcd9;fill-opacity:1;" d="M 248.648438 52.652344 C 247.546875 53.328125 246.386719 54.5 245.449219 55.265625 C 244.496094 56.027344 243.734375 56.394531 243.191406 57.375 C 242.648438 58.359375 242.296875 59.972656 242.839844 61.378906 C 243.398438 62.773438 244.832031 63.960938 246.800781 64.328125 C 248.765625 64.710938 251.273438 64.269531 252.84375 63.242188 C 254.410156 62.230469 255.042969 60.617188 255.304688 58.902344 C 255.570312 57.1875 255.453125 55.367188 254.820312 54.136719 C 254.207031 52.902344 253.0625 52.273438 251.960938 52.039062 C 250.847656 51.804688 249.761719 51.980469 248.648438 52.652344 Z M 248.648438 52.652344 "/></g><g clip-rule="nonzero" clip-path="url(#41559d701b)"><g clip-rule="nonzero" clip-path="url(#1810f936ca)"><g clip-rule="nonzero" clip-path="url(#6d917b75ba)"><path style=" stroke:none;fill-rule:nonzero;fill:#fbdcd9;fill-opacity:1;" d="M 258.125 37.738281 C 258.585938 37.761719 259.039062 37.871094 259.484375 38.074219 C 259.925781 38.277344 260.355469 38.566406 260.761719 38.9375 C 261.171875 39.3125 261.554688 39.765625 261.914062 40.296875 C 262.273438 40.828125 262.601562 41.429688 262.894531 42.097656 C 263.191406 42.765625 263.449219 43.488281 263.667969 44.269531 C 263.886719 45.050781 264.0625 45.871094 264.199219 46.730469 C 264.335938 47.59375 264.425781 48.480469 264.472656 49.390625 C 264.515625 50.300781 264.519531 51.214844 264.472656 52.140625 C 264.429688 53.0625 264.339844 53.972656 264.207031 54.875 C 264.070312 55.777344 263.894531 56.648438 263.679688 57.492188 C 263.460938 58.339844 263.203125 59.136719 262.910156 59.894531 C 262.617188 60.648438 262.289062 61.34375 261.933594 61.980469 C 261.574219 62.617188 261.191406 63.183594 260.78125 63.679688 C 260.375 64.171875 259.949219 64.585938 259.503906 64.917969 C 259.0625 65.25 258.609375 65.496094 258.148438 65.65625 C 257.683594 65.8125 257.222656 65.882812 256.761719 65.859375 C 256.300781 65.835938 255.847656 65.722656 255.402344 65.523438 C 254.960938 65.320312 254.535156 65.03125 254.125 64.65625 C 253.714844 64.285156 253.332031 63.832031 252.972656 63.300781 C 252.613281 62.769531 252.285156 62.167969 251.992188 61.5 C 251.695312 60.832031 251.4375 60.105469 251.21875 59.328125 C 251 58.546875 250.824219 57.726562 250.6875 56.863281 C 250.550781 56.003906 250.460938 55.117188 250.414062 54.207031 C 250.371094 53.296875 250.367188 52.382812 250.414062 51.457031 C 250.457031 50.535156 250.546875 49.621094 250.679688 48.722656 C 250.816406 47.820312 250.992188 46.949219 251.210938 46.101562 C 251.425781 45.257812 251.683594 44.460938 251.976562 43.703125 C 252.269531 42.949219 252.597656 42.253906 252.953125 41.617188 C 253.3125 40.976562 253.695312 40.414062 254.105469 39.917969 C 254.511719 39.425781 254.9375 39.011719 255.382812 38.679688 C 255.824219 38.34375 256.277344 38.101562 256.738281 37.941406 C 257.203125 37.785156 257.664062 37.714844 258.125 37.738281 Z M 258.125 37.738281 "/></g></g></g><g clip-rule="nonzero" clip-path="url(#78d48e3644)"><g clip-rule="nonzero" clip-path="url(#c53883106c)"><g clip-rule="nonzero" clip-path="url(#6aa6716eed)"><path style=" stroke:none;fill-rule:evenodd;fill:#fbdcd9;fill-opacity:1;" d="M 240.246094 72.320312 C 239.191406 71.578125 237.652344 70.980469 236.582031 70.417969 C 235.503906 69.84375 234.867188 69.289062 233.75 69.179688 C 232.632812 69.070312 231.011719 69.386719 229.929688 70.441406 C 228.871094 71.503906 228.351562 73.296875 228.792969 75.246094 C 229.21875 77.199219 230.617188 79.332031 232.179688 80.363281 C 233.730469 81.40625 235.460938 81.347656 237.140625 80.910156 C 238.820312 80.472656 240.445312 79.644531 241.328125 78.578125 C 242.214844 77.527344 242.34375 76.226562 242.121094 75.121094 C 241.898438 74.003906 241.304688 73.078125 240.246094 72.320312 Z M 240.246094 72.320312 "/></g></g></g><g clip-rule="nonzero" clip-path="url(#e147028e27)"><g clip-rule="nonzero" clip-path="url(#72277d018c)"><g clip-rule="nonzero" clip-path="url(#4311c13a0e)"><path style=" stroke:none;fill-rule:evenodd;fill:#fbdcd9;fill-opacity:1;" d="M 233.867188 59.976562 C 233.96875 58.085938 233.558594 56.324219 232.339844 55.085938 C 231.132812 53.859375 229.144531 53.152344 227.355469 53.136719 C 225.585938 53.125 224.027344 53.800781 223.113281 55.722656 C 222.199219 57.664062 221.929688 60.863281 222.757812 63.066406 C 223.570312 65.289062 225.496094 66.535156 227.285156 66.828125 C 229.09375 67.125 230.777344 66.46875 231.933594 65.160156 C 233.105469 63.832031 233.75 61.847656 233.867188 59.976562 Z M 233.867188 59.976562 "/></g></g></g><g clip-rule="nonzero" clip-path="url(#e5f5d1456f)"><g clip-rule="nonzero" clip-path="url(#8c10053341)"><g clip-rule="nonzero" clip-path="url(#78f64c2a1a)"><path style=" stroke:none;fill-rule:evenodd;fill:#fbdcd9;fill-opacity:1;" d="M 232.113281 79.726562 C 232.214844 77.835938 231.804688 76.074219 230.582031 74.835938 C 229.378906 73.609375 227.390625 72.902344 225.601562 72.890625 C 223.828125 72.875 222.273438 73.550781 221.359375 75.472656 C 220.445312 77.414062 220.175781 80.613281 221 82.816406 C 221.816406 85.039062 223.742188 86.285156 225.53125 86.578125 C 227.339844 86.875 229.023438 86.21875 230.179688 84.910156 C 231.351562 83.582031 231.992188 81.597656 232.113281 79.726562 Z M 232.113281 79.726562 "/></g></g></g><g clip-rule="nonzero" clip-path="url(#3e789c7419)"><g clip-rule="nonzero" clip-path="url(#fb7fea0840)"><g clip-rule="nonzero" clip-path="url(#8322dd3844)"><path style=" stroke:none;fill-rule:evenodd;fill:#fbdcd9;fill-opacity:1;" d="M 225.339844 72.277344 C 225.011719 70.710938 224.203125 69.566406 223.144531 68.75 C 222.105469 67.921875 220.785156 67.40625 218.550781 67.742188 C 216.328125 68.097656 213.148438 69.300781 211.40625 70.960938 C 209.65625 72.648438 209.324219 74.785156 209.71875 76.636719 C 210.121094 78.503906 211.242188 80.066406 212.464844 80.917969 C 213.675781 81.753906 214.984375 81.875 217.144531 81.238281 C 219.300781 80.597656 222.3125 79.203125 223.898438 77.527344 C 225.496094 75.824219 225.652344 73.851562 225.339844 72.277344 Z M 225.339844 72.277344 "/></g></g></g><g clip-rule="nonzero" clip-path="url(#660c00a70a)"><g clip-rule="nonzero" clip-path="url(#3065a1d610)"><g clip-rule="nonzero" clip-path="url(#56c314ab1d)"><path style=" stroke:none;fill-rule:evenodd;fill:#fbdcd9;fill-opacity:1;" d="M 223.378906 60.089844 C 222.234375 59.492188 220.632812 59.097656 219.496094 58.683594 C 218.355469 58.257812 217.648438 57.789062 216.527344 57.828125 C 215.40625 57.863281 213.839844 58.390625 212.90625 59.578125 C 211.996094 60.769531 211.714844 62.613281 212.40625 64.488281 C 213.085938 66.371094 214.75 68.300781 216.4375 69.121094 C 218.109375 69.949219 219.820312 69.664062 221.429688 69.011719 C 223.035156 68.359375 224.539062 67.324219 225.273438 66.152344 C 226.015625 64.992188 225.96875 63.6875 225.605469 62.621094 C 225.238281 61.542969 224.53125 60.703125 223.378906 60.089844 Z M 223.378906 60.089844 "/></g></g></g><g clip-rule="nonzero" clip-path="url(#e14dd970cb)"><g clip-rule="nonzero" clip-path="url(#47c2924c12)"><g clip-rule="nonzero" clip-path="url(#9332374e02)"><path style=" stroke:none;fill-rule:nonzero;fill:#fbdcd9;fill-opacity:1;" d="M 242.671875 63.78125 C 242.890625 64.191406 243.027344 64.636719 243.082031 65.121094 C 243.136719 65.605469 243.105469 66.121094 242.996094 66.664062 C 242.882812 67.207031 242.691406 67.769531 242.421875 68.347656 C 242.148438 68.929688 241.800781 69.519531 241.378906 70.113281 C 240.953125 70.710938 240.464844 71.300781 239.90625 71.890625 C 239.351562 72.476562 238.734375 73.050781 238.066406 73.609375 C 237.394531 74.167969 236.679688 74.699219 235.925781 75.203125 C 235.167969 75.710938 234.378906 76.179688 233.5625 76.617188 C 232.75 77.050781 231.917969 77.441406 231.078125 77.789062 C 230.234375 78.136719 229.394531 78.433594 228.558594 78.679688 C 227.722656 78.925781 226.90625 79.113281 226.105469 79.25 C 225.304688 79.382812 224.542969 79.460938 223.8125 79.480469 C 223.082031 79.5 222.398438 79.460938 221.765625 79.363281 C 221.132812 79.265625 220.558594 79.113281 220.042969 78.902344 C 219.53125 78.691406 219.089844 78.429688 218.714844 78.113281 C 218.34375 77.796875 218.050781 77.4375 217.832031 77.03125 C 217.613281 76.621094 217.476562 76.175781 217.425781 75.691406 C 217.371094 75.207031 217.398438 74.691406 217.507812 74.148438 C 217.621094 73.605469 217.8125 73.042969 218.085938 72.460938 C 218.355469 71.882812 218.703125 71.292969 219.128906 70.699219 C 219.550781 70.101562 220.039062 69.511719 220.597656 68.921875 C 221.15625 68.332031 221.769531 67.761719 222.441406 67.203125 C 223.109375 66.644531 223.824219 66.113281 224.582031 65.605469 C 225.339844 65.101562 226.125 64.628906 226.941406 64.195312 C 227.757812 63.761719 228.585938 63.371094 229.429688 63.023438 C 230.269531 62.675781 231.109375 62.378906 231.945312 62.132812 C 232.78125 61.886719 233.601562 61.699219 234.398438 61.5625 C 235.199219 61.425781 235.964844 61.351562 236.695312 61.332031 C 237.425781 61.3125 238.105469 61.351562 238.742188 61.449219 C 239.375 61.546875 239.949219 61.699219 240.460938 61.910156 C 240.972656 62.121094 241.417969 62.382812 241.789062 62.699219 C 242.160156 63.011719 242.457031 63.375 242.671875 63.78125 Z M 242.671875 63.78125 "/></g></g></g><g clip-rule="nonzero" clip-path="url(#794bf27acc)"><path style=" stroke:none;fill-rule:nonzero;fill:#f9afa6;fill-opacity:1;" d="M 256.558594 50.417969 C 256.25 50.429688 255.796875 50.53125 255.441406 50.675781 C 254.855469 50.914062 254.296875 51.367188 253.921875 51.898438 C 253.757812 52.132812 253.535156 52.503906 253.453125 52.679688 C 253.242188 53.128906 253.078125 53.765625 253.015625 54.386719 C 252.960938 54.945312 253.113281 55.691406 253.390625 56.214844 C 253.726562 56.855469 254.015625 57.117188 254.660156 57.375 C 255.085938 57.542969 255.851562 57.714844 256.363281 57.757812 C 256.625 57.777344 256.6875 57.777344 256.972656 57.757812 C 257.277344 57.734375 257.519531 57.6875 257.835938 57.59375 C 258.4375 57.410156 258.820312 57.195312 259.230469 56.808594 C 259.484375 56.570312 259.734375 56.21875 259.910156 55.863281 C 260.042969 55.59375 260.214844 55.085938 260.28125 54.769531 C 260.328125 54.554688 260.332031 54.488281 260.335938 54.125 C 260.335938 53.769531 260.332031 53.691406 260.289062 53.507812 C 260.195312 53.058594 260.023438 52.625 259.820312 52.324219 C 259.644531 52.058594 259.335938 51.660156 259.199219 51.515625 C 258.871094 51.171875 258.296875 50.800781 257.875 50.664062 C 257.640625 50.585938 256.890625 50.433594 256.683594 50.421875 C 256.644531 50.417969 256.605469 50.417969 256.558594 50.417969 Z M 256.558594 50.417969 "/></g><g clip-rule="nonzero" clip-path="url(#fea3b27c03)"><path style=" stroke:none;fill-rule:nonzero;fill:#f9afa6;fill-opacity:1;" d="M 226.945312 67.21875 C 226.636719 67.230469 226.179688 67.332031 225.824219 67.476562 C 225.242188 67.714844 224.679688 68.167969 224.308594 68.699219 C 224.144531 68.933594 223.921875 69.304688 223.839844 69.480469 C 223.628906 69.929688 223.464844 70.566406 223.402344 71.1875 C 223.347656 71.746094 223.496094 72.492188 223.773438 73.015625 C 224.113281 73.65625 224.402344 73.917969 225.042969 74.175781 C 225.472656 74.34375 226.234375 74.515625 226.75 74.558594 C 227.011719 74.582031 227.074219 74.582031 227.359375 74.558594 C 227.660156 74.535156 227.90625 74.488281 228.21875 74.394531 C 228.824219 74.210938 229.203125 73.996094 229.613281 73.609375 C 229.867188 73.371094 230.121094 73.019531 230.296875 72.664062 C 230.429688 72.394531 230.601562 71.886719 230.667969 71.570312 C 230.714844 71.355469 230.71875 71.289062 230.71875 70.925781 C 230.722656 70.570312 230.714844 70.496094 230.675781 70.308594 C 230.582031 69.859375 230.410156 69.425781 230.203125 69.125 C 230.027344 68.859375 229.722656 68.460938 229.585938 68.316406 C 229.257812 67.972656 228.683594 67.601562 228.257812 67.464844 C 228.027344 67.386719 227.273438 67.234375 227.066406 67.222656 C 227.03125 67.21875 226.988281 67.21875 226.945312 67.21875 Z M 226.945312 67.21875 "/></g><g clip-rule="nonzero" clip-path="url(#cbbe7f929c)"><g clip-rule="nonzero" clip-path="url(#fd146c8e5a)"><g clip-rule="nonzero" clip-path="url(#f068f5ee68)"><path style=" stroke:none;fill-rule:nonzero;fill:#517564;fill-opacity:1;" d="M 188.015625 110.449219 C 187.648438 110.542969 187.210938 110.355469 186.933594 110.023438 C 169.472656 81.90625 178.921875 54.5 179.03125 54.167969 C 179.207031 53.71875 179.730469 53.484375 180.257812 53.648438 C 180.785156 53.816406 181.023438 54.359375 180.78125 54.925781 C 180.738281 55.136719 171.550781 81.671875 188.609375 108.988281 C 188.914062 109.414062 188.785156 110.050781 188.378906 110.355469 C 188.289062 110.378906 188.195312 110.402344 188.015625 110.449219 Z M 188.015625 110.449219 "/></g></g></g><g clip-rule="nonzero" clip-path="url(#e9e9ca9ba3)"><path style=" stroke:none;fill-rule:nonzero;fill:#517564;fill-opacity:1;" d="M 156.28125 109.007812 C 156.710938 109.007812 157.144531 108.683594 157.359375 108.253906 C 168.652344 73.40625 150.367188 46.730469 150.152344 46.40625 C 149.828125 45.976562 149.183594 45.871094 148.644531 46.191406 C 148.109375 46.515625 148 47.160156 148.429688 47.699219 C 148.539062 47.914062 166.285156 73.726562 155.207031 107.609375 C 154.992188 108.144531 155.3125 108.792969 155.851562 109.007812 C 155.960938 109.007812 156.066406 109.007812 156.28125 109.007812 Z M 156.28125 109.007812 "/></g><g clip-rule="nonzero" clip-path="url(#67a0ef9c6a)"><g clip-rule="nonzero" clip-path="url(#62eb233815)"><g clip-rule="nonzero" clip-path="url(#5e52dd731f)"><path style=" stroke:none;fill-rule:evenodd;fill:#fbdcd9;fill-opacity:1;" d="M 158.945312 26.242188 C 157.496094 26.644531 155.816406 27.585938 154.519531 28.136719 C 153.203125 28.6875 152.230469 28.851562 151.304688 29.777344 C 150.378906 30.707031 149.464844 32.402344 149.621094 34.15625 C 149.796875 35.898438 151.023438 37.695312 153.109375 38.738281 C 155.191406 39.800781 158.144531 40.113281 160.238281 39.46875 C 162.324219 38.839844 163.550781 37.234375 164.398438 35.394531 C 165.25 33.554688 165.703125 31.476562 165.394531 29.894531 C 165.097656 28.3125 164.019531 27.238281 162.863281 26.617188 C 161.6875 25.996094 160.414062 25.84375 158.945312 26.242188 Z M 158.945312 26.242188 "/></g></g></g><g clip-rule="nonzero" clip-path="url(#b8ba05f7fe)"><g clip-rule="nonzero" clip-path="url(#50ca42c88f)"><g clip-rule="nonzero" clip-path="url(#35cbfcb433)"><path style=" stroke:none;fill-rule:evenodd;fill:#fbdcd9;fill-opacity:1;" d="M 140.910156 27.394531 C 139.082031 26.164062 137.078125 25.519531 135.105469 26 C 133.160156 26.476562 131.265625 28.042969 130.1875 29.820312 C 129.113281 31.585938 128.859375 33.546875 130.238281 35.609375 C 131.628906 37.679688 134.667969 39.863281 137.367188 40.351562 C 140.078125 40.863281 142.472656 39.679688 143.835938 38.066406 C 145.210938 36.4375 145.5625 34.363281 144.941406 32.421875 C 144.3125 30.457031 142.710938 28.628906 140.910156 27.394531 Z M 140.910156 27.394531 "/></g></g></g><g clip-rule="nonzero" clip-path="url(#b2b8081949)"><g clip-rule="nonzero" clip-path="url(#8aec3c66aa)"><g clip-rule="nonzero" clip-path="url(#df806f0e5d)"><path style=" stroke:none;fill-rule:evenodd;fill:#fbdcd9;fill-opacity:1;" d="M 161.015625 39.40625 C 159.191406 38.175781 157.183594 37.535156 155.214844 38.015625 C 153.269531 38.488281 151.375 40.054688 150.292969 41.835938 C 149.21875 43.597656 148.96875 45.558594 150.34375 47.621094 C 151.738281 49.695312 154.777344 51.875 157.476562 52.363281 C 160.183594 52.878906 162.578125 51.691406 163.941406 50.078125 C 165.316406 48.449219 165.667969 46.375 165.046875 44.4375 C 164.417969 42.472656 162.820312 40.644531 161.015625 39.40625 Z M 161.015625 39.40625 "/></g></g></g><g clip-rule="nonzero" clip-path="url(#89c6b1bea0)"><path style=" stroke:none;fill-rule:evenodd;fill:#fbdcd9;fill-opacity:1;" d="M 146.96875 38.464844 C 145.085938 38.054688 143.429688 38.375 142.007812 39.132812 C 140.582031 39.867188 139.367188 41.0625 138.632812 43.679688 C 137.917969 46.296875 137.667969 50.382812 138.632812 53.117188 C 139.617188 55.871094 141.800781 57.296875 144.027344 57.777344 C 146.277344 58.261719 148.550781 57.800781 150.089844 56.882812 C 151.605469 55.964844 152.386719 54.585938 152.753906 51.898438 C 153.121094 49.214844 153.074219 45.21875 152.019531 42.644531 C 150.941406 40.050781 148.851562 38.902344 146.96875 38.464844 Z M 146.96875 38.464844 "/></g><g clip-rule="nonzero" clip-path="url(#f8c8d9ed7c)"><path style=" stroke:none;fill-rule:evenodd;fill:#fbdcd9;fill-opacity:1;" d="M 136.296875 36.851562 C 135.011719 37.636719 133.660156 39.007812 132.566406 39.894531 C 131.453125 40.785156 130.5625 41.214844 129.929688 42.359375 C 129.296875 43.507812 128.886719 45.390625 129.519531 47.03125 C 130.167969 48.660156 131.847656 50.042969 134.140625 50.472656 C 136.433594 50.917969 139.359375 50.402344 141.191406 49.207031 C 143.023438 48.023438 143.757812 46.144531 144.066406 44.140625 C 144.375 42.136719 144.238281 40.015625 143.5 38.578125 C 142.78125 37.140625 141.449219 36.40625 140.164062 36.132812 C 138.863281 35.855469 137.597656 36.0625 136.296875 36.851562 Z M 136.296875 36.851562 "/></g><g clip-rule="nonzero" clip-path="url(#ce78d74f01)"><g clip-rule="nonzero" clip-path="url(#1dcd72dc09)"><g clip-rule="nonzero" clip-path="url(#c41ef903ae)"><path style=" stroke:none;fill-rule:nonzero;fill:#fbdcd9;fill-opacity:1;" d="M 147.5625 19.269531 C 148.105469 19.296875 148.640625 19.429688 149.164062 19.667969 C 149.6875 19.90625 150.191406 20.246094 150.671875 20.683594 C 151.15625 21.125 151.609375 21.660156 152.03125 22.285156 C 152.457031 22.914062 152.839844 23.621094 153.1875 24.410156 C 153.535156 25.199219 153.839844 26.050781 154.097656 26.972656 C 154.355469 27.890625 154.566406 28.859375 154.726562 29.875 C 154.886719 30.890625 154.992188 31.933594 155.046875 33.007812 C 155.101562 34.082031 155.101562 35.160156 155.050781 36.25 C 154.996094 37.339844 154.890625 38.414062 154.734375 39.476562 C 154.574219 40.539062 154.367188 41.566406 154.109375 42.5625 C 153.855469 43.558594 153.550781 44.5 153.207031 45.390625 C 152.859375 46.28125 152.476562 47.101562 152.054688 47.855469 C 151.632812 48.605469 151.179688 49.273438 150.699219 49.855469 C 150.214844 50.4375 149.714844 50.925781 149.191406 51.316406 C 148.667969 51.710938 148.132812 52 147.589844 52.1875 C 147.046875 52.371094 146.5 52.453125 145.957031 52.425781 C 145.414062 52.398438 144.878906 52.265625 144.355469 52.027344 C 143.832031 51.792969 143.328125 51.453125 142.847656 51.011719 C 142.363281 50.570312 141.910156 50.035156 141.488281 49.410156 C 141.0625 48.78125 140.679688 48.074219 140.332031 47.285156 C 139.984375 46.5 139.679688 45.644531 139.421875 44.722656 C 139.164062 43.804688 138.953125 42.835938 138.792969 41.820312 C 138.636719 40.804688 138.527344 39.761719 138.472656 38.6875 C 138.417969 37.617188 138.417969 36.535156 138.46875 35.445312 C 138.523438 34.359375 138.628906 33.28125 138.785156 32.21875 C 138.945312 31.15625 139.152344 30.128906 139.410156 29.132812 C 139.664062 28.136719 139.96875 27.195312 140.3125 26.304688 C 140.660156 25.414062 141.042969 24.59375 141.464844 23.839844 C 141.886719 23.089844 142.339844 22.421875 142.824219 21.839844 C 143.304688 21.257812 143.804688 20.769531 144.328125 20.378906 C 144.851562 19.984375 145.386719 19.695312 145.929688 19.511719 C 146.472656 19.324219 147.019531 19.242188 147.5625 19.269531 Z M 147.5625 19.269531 "/></g></g></g><g clip-rule="nonzero" clip-path="url(#a5f8ce9c80)"><g clip-rule="nonzero" clip-path="url(#6535ddee1d)"><g clip-rule="nonzero" clip-path="url(#cfee70c3aa)"><path style=" stroke:none;fill-rule:evenodd;fill:#fbdcd9;fill-opacity:1;" d="M 202.488281 59.871094 C 201.257812 59.003906 199.464844 58.304688 198.214844 57.652344 C 196.957031 56.980469 196.210938 56.332031 194.910156 56.207031 C 193.605469 56.078125 191.714844 56.445312 190.457031 57.675781 C 189.21875 58.917969 188.609375 61.007812 189.125 63.28125 C 189.625 65.566406 191.253906 68.050781 193.078125 69.257812 C 194.886719 70.472656 196.90625 70.402344 198.867188 69.890625 C 200.828125 69.382812 202.722656 68.417969 203.753906 67.171875 C 204.789062 65.945312 204.9375 64.425781 204.679688 63.140625 C 204.417969 61.835938 203.726562 60.753906 202.488281 59.871094 Z M 202.488281 59.871094 "/></g></g></g><g clip-rule="nonzero" clip-path="url(#29592dba03)"><g clip-rule="nonzero" clip-path="url(#a7469e8fb6)"><g clip-rule="nonzero" clip-path="url(#83f69311a4)"><path style=" stroke:none;fill-rule:evenodd;fill:#fbdcd9;fill-opacity:1;" d="M 194.992188 45.277344 C 195.109375 43.078125 194.636719 41.027344 193.210938 39.582031 C 191.808594 38.152344 189.492188 37.328125 187.410156 37.3125 C 185.34375 37.296875 183.53125 38.085938 182.464844 40.324219 C 181.402344 42.582031 181.085938 46.308594 182.050781 48.878906 C 183 51.46875 185.242188 52.917969 187.328125 53.261719 C 189.433594 53.605469 191.394531 52.84375 192.738281 51.316406 C 194.105469 49.769531 194.855469 47.457031 194.992188 45.277344 Z M 194.992188 45.277344 "/></g></g></g><g clip-rule="nonzero" clip-path="url(#da6df7c7f2)"><g clip-rule="nonzero" clip-path="url(#9de6056991)"><g clip-rule="nonzero" clip-path="url(#e594562e76)"><path style=" stroke:none;fill-rule:evenodd;fill:#fbdcd9;fill-opacity:1;" d="M 192.921875 68.574219 C 193.042969 66.375 192.566406 64.324219 191.144531 62.878906 C 189.738281 61.449219 187.421875 60.625 185.339844 60.609375 C 183.277344 60.59375 181.460938 61.382812 180.398438 63.621094 C 179.332031 65.878906 179.015625 69.605469 179.980469 72.175781 C 180.929688 74.765625 183.175781 76.214844 185.257812 76.558594 C 187.363281 76.902344 189.324219 76.140625 190.671875 74.613281 C 192.035156 73.066406 192.785156 70.753906 192.921875 68.574219 Z M 192.921875 68.574219 "/></g></g></g><g clip-rule="nonzero" clip-path="url(#ddc2a7f313)"><g clip-rule="nonzero" clip-path="url(#86e6a798a7)"><g clip-rule="nonzero" clip-path="url(#5357d405c2)"><path style=" stroke:none;fill-rule:evenodd;fill:#fbdcd9;fill-opacity:1;" d="M 185.003906 60.074219 C 184.609375 58.1875 183.636719 56.8125 182.363281 55.824219 C 181.105469 54.828125 179.519531 54.210938 176.828125 54.613281 C 174.152344 55.039062 170.320312 56.488281 168.222656 58.488281 C 166.117188 60.523438 165.714844 63.09375 166.191406 65.324219 C 166.675781 67.574219 168.027344 69.457031 169.496094 70.484375 C 170.957031 71.488281 172.53125 71.636719 175.132812 70.867188 C 177.734375 70.097656 181.359375 68.417969 183.269531 66.398438 C 185.191406 64.347656 185.378906 61.972656 185.003906 60.074219 Z M 185.003906 60.074219 "/></g></g></g><g clip-rule="nonzero" clip-path="url(#0aaab13f7c)"><g clip-rule="nonzero" clip-path="url(#45651ad390)"><g clip-rule="nonzero" clip-path="url(#2e41465860)"><path style=" stroke:none;fill-rule:evenodd;fill:#fbdcd9;fill-opacity:1;" d="M 182.585938 45.449219 C 181.25 44.75 179.382812 44.289062 178.054688 43.804688 C 176.722656 43.308594 175.898438 42.761719 174.589844 42.804688 C 173.28125 42.851562 171.453125 43.464844 170.367188 44.847656 C 169.304688 46.242188 168.972656 48.390625 169.78125 50.582031 C 170.578125 52.777344 172.515625 55.027344 174.484375 55.984375 C 176.4375 56.953125 178.429688 56.617188 180.308594 55.855469 C 182.1875 55.09375 183.9375 53.890625 184.792969 52.519531 C 185.660156 51.164062 185.609375 49.640625 185.183594 48.398438 C 184.753906 47.144531 183.925781 46.160156 182.585938 45.449219 Z M 182.585938 45.449219 "/></g></g></g><g clip-rule="nonzero" clip-path="url(#54912ca355)"><g clip-rule="nonzero" clip-path="url(#d48934f1af)"><g clip-rule="nonzero" clip-path="url(#708bbf8f51)"><path style=" stroke:none;fill-rule:nonzero;fill:#fbdcd9;fill-opacity:1;" d="M 205.378906 49.875 C 205.632812 50.359375 205.792969 50.882812 205.859375 51.457031 C 205.921875 52.027344 205.886719 52.632812 205.757812 53.273438 C 205.625 53.914062 205.398438 54.578125 205.078125 55.261719 C 204.757812 55.945312 204.347656 56.640625 203.847656 57.34375 C 203.351562 58.042969 202.773438 58.742188 202.117188 59.4375 C 201.457031 60.128906 200.734375 60.804688 199.945312 61.464844 C 199.152344 62.121094 198.3125 62.75 197.417969 63.34375 C 196.527344 63.941406 195.597656 64.496094 194.636719 65.007812 C 193.675781 65.523438 192.699219 65.984375 191.703125 66.390625 C 190.710938 66.800781 189.722656 67.152344 188.734375 67.441406 C 187.75 67.730469 186.785156 67.953125 185.84375 68.113281 C 184.902344 68.273438 184 68.363281 183.136719 68.386719 C 182.277344 68.410156 181.472656 68.363281 180.722656 68.25 C 179.976562 68.132812 179.300781 67.953125 178.695312 67.703125 C 178.089844 67.457031 177.570312 67.144531 177.128906 66.773438 C 176.691406 66.402344 176.34375 65.976562 176.085938 65.496094 C 175.832031 65.015625 175.671875 64.488281 175.605469 63.917969 C 175.542969 63.347656 175.578125 62.738281 175.707031 62.097656 C 175.839844 61.457031 176.066406 60.796875 176.386719 60.113281 C 176.707031 59.425781 177.117188 58.734375 177.617188 58.03125 C 178.113281 57.328125 178.691406 56.628906 179.347656 55.9375 C 180.007812 55.242188 180.730469 54.566406 181.519531 53.910156 C 182.3125 53.25 183.152344 52.625 184.046875 52.027344 C 184.9375 51.429688 185.867188 50.875 186.828125 50.363281 C 187.789062 49.851562 188.765625 49.390625 189.761719 48.980469 C 190.753906 48.570312 191.742188 48.222656 192.730469 47.933594 C 193.714844 47.644531 194.679688 47.417969 195.621094 47.257812 C 196.5625 47.101562 197.464844 47.007812 198.328125 46.984375 C 199.1875 46.964844 199.992188 47.011719 200.742188 47.125 C 201.488281 47.238281 202.164062 47.421875 202.769531 47.667969 C 203.375 47.917969 203.894531 48.226562 204.335938 48.597656 C 204.773438 48.96875 205.121094 49.394531 205.378906 49.875 Z M 205.378906 49.875 "/></g></g></g><g clip-rule="nonzero" clip-path="url(#400836c0d0)"><path style=" stroke:none;fill-rule:nonzero;fill:#f9afa6;fill-opacity:1;" d="M 145.707031 34.234375 C 145.34375 34.246094 144.804688 34.367188 144.386719 34.535156 C 143.699219 34.816406 143.039062 35.347656 142.597656 35.976562 C 142.40625 36.253906 142.140625 36.691406 142.046875 36.894531 C 141.796875 37.425781 141.605469 38.175781 141.53125 38.910156 C 141.464844 39.566406 141.644531 40.445312 141.972656 41.066406 C 142.367188 41.816406 142.710938 42.128906 143.46875 42.429688 C 143.972656 42.628906 144.871094 42.832031 145.476562 42.882812 C 145.785156 42.90625 145.859375 42.90625 146.191406 42.882812 C 146.550781 42.855469 146.839844 42.800781 147.210938 42.6875 C 147.921875 42.472656 148.371094 42.21875 148.855469 41.765625 C 149.152344 41.484375 149.449219 41.070312 149.65625 40.648438 C 149.8125 40.328125 150.015625 39.730469 150.09375 39.359375 C 150.148438 39.105469 150.15625 39.027344 150.15625 38.601562 C 150.15625 38.183594 150.152344 38.089844 150.105469 37.875 C 149.992188 37.34375 149.789062 36.835938 149.550781 36.476562 C 149.339844 36.164062 148.980469 35.695312 148.816406 35.523438 C 148.433594 35.117188 147.757812 34.683594 147.253906 34.519531 C 146.984375 34.429688 146.09375 34.25 145.851562 34.234375 C 145.808594 34.230469 145.757812 34.230469 145.707031 34.234375 Z M 145.707031 34.234375 "/></g><g clip-rule="nonzero" clip-path="url(#19bfb11953)"><path style=" stroke:none;fill-rule:nonzero;fill:#f9afa6;fill-opacity:1;" d="M 186.820312 53.941406 C 186.457031 53.953125 185.917969 54.074219 185.5 54.246094 C 184.8125 54.523438 184.152344 55.054688 183.710938 55.683594 C 183.515625 55.960938 183.253906 56.398438 183.160156 56.601562 C 182.910156 57.132812 182.71875 57.882812 182.644531 58.617188 C 182.578125 59.277344 182.757812 60.152344 183.085938 60.773438 C 183.480469 61.523438 183.824219 61.835938 184.582031 62.136719 C 185.085938 62.335938 185.984375 62.539062 186.589844 62.589844 C 186.898438 62.613281 186.972656 62.613281 187.304688 62.589844 C 187.664062 62.5625 187.953125 62.507812 188.324219 62.394531 C 189.03125 62.179688 189.484375 61.925781 189.96875 61.472656 C 190.265625 61.191406 190.5625 60.777344 190.769531 60.355469 C 190.925781 60.035156 191.128906 59.4375 191.207031 59.070312 C 191.261719 58.816406 191.269531 58.734375 191.269531 58.308594 C 191.269531 57.890625 191.265625 57.800781 191.21875 57.582031 C 191.105469 57.050781 190.902344 56.542969 190.664062 56.183594 C 190.453125 55.871094 190.09375 55.402344 189.929688 55.234375 C 189.546875 54.828125 188.871094 54.390625 188.367188 54.226562 C 188.097656 54.136719 187.207031 53.957031 186.964844 53.941406 C 186.921875 53.9375 186.871094 53.9375 186.820312 53.941406 Z M 186.820312 53.941406 "/></g><g style="fill:#f9afa6;fill-opacity:1;"><g transform="translate(113.584586, 132.971825)"><path style="stroke:none" d="M 7.53125 0.203125 C 5.289062 0.203125 3.648438 -0.421875 2.609375 -1.671875 C 1.566406 -2.929688 1.046875 -4.804688 1.046875 -7.296875 C 1.046875 -12.296875 3.109375 -14.796875 7.234375 -14.796875 C 8.648438 -14.796875 9.785156 -14.507812 10.640625 -13.9375 C 11.503906 -13.375 12.046875 -12.535156 12.265625 -11.421875 C 12.378906 -10.847656 12.257812 -10.40625 11.90625 -10.09375 C 11.5625 -9.78125 11.101562 -9.625 10.53125 -9.625 L 10.265625 -9.625 C 9.898438 -9.625 9.625 -9.6875 9.4375 -9.8125 C 9.25 -9.9375 9.097656 -10.125 8.984375 -10.375 C 8.867188 -10.625 8.742188 -10.925781 8.609375 -11.28125 C 8.421875 -11.726562 7.972656 -11.953125 7.265625 -11.953125 C 6.671875 -11.953125 6.203125 -11.800781 5.859375 -11.5 C 5.515625 -11.195312 5.269531 -10.707031 5.125 -10.03125 C 4.976562 -9.363281 4.90625 -8.453125 4.90625 -7.296875 C 4.90625 -6.066406 5.019531 -5.117188 5.25 -4.453125 C 5.476562 -3.796875 5.785156 -3.34375 6.171875 -3.09375 C 6.554688 -2.851562 6.972656 -2.734375 7.421875 -2.734375 C 7.921875 -2.734375 8.34375 -2.8125 8.6875 -2.96875 C 9.039062 -3.125 9.21875 -3.332031 9.21875 -3.59375 L 9.21875 -5.21875 L 8.875 -5.21875 C 7.6875 -5.21875 7.09375 -5.664062 7.09375 -6.5625 C 7.09375 -7.457031 7.6875 -7.90625 8.875 -7.90625 L 10.796875 -7.90625 C 11.992188 -7.90625 12.59375 -7.3125 12.59375 -6.125 L 12.59375 -3.265625 C 12.59375 -2.828125 12.554688 -2.460938 12.484375 -2.171875 C 12.421875 -1.890625 12.296875 -1.644531 12.109375 -1.4375 C 11.671875 -0.96875 11.097656 -0.578125 10.390625 -0.265625 C 9.679688 0.046875 8.726562 0.203125 7.53125 0.203125 Z M 7.53125 0.203125 "/></g></g><g style="fill:#f9afa6;fill-opacity:1;"><g transform="translate(131.431125, 132.971825)"><path style="stroke:none" d="M 3.375 0 C 2.175781 0 1.578125 -0.59375 1.578125 -1.78125 C 1.585938 -2.695312 1.597656 -3.613281 1.609375 -4.53125 C 1.617188 -5.457031 1.625 -6.378906 1.625 -7.296875 C 1.625 -8.210938 1.617188 -9.128906 1.609375 -10.046875 C 1.597656 -10.960938 1.585938 -11.878906 1.578125 -12.796875 C 1.578125 -13.984375 2.175781 -14.578125 3.375 -14.578125 L 6.984375 -14.578125 C 9.117188 -14.578125 10.671875 -14.234375 11.640625 -13.546875 C 12.609375 -12.859375 13.09375 -11.742188 13.09375 -10.203125 C 13.09375 -9.265625 12.835938 -8.457031 12.328125 -7.78125 C 11.816406 -7.113281 11.109375 -6.664062 10.203125 -6.4375 L 10.203125 -6.359375 C 10.910156 -6.148438 11.488281 -5.703125 11.9375 -5.015625 C 12.382812 -4.328125 12.753906 -3.328125 13.046875 -2.015625 C 13.191406 -1.390625 13.113281 -0.894531 12.8125 -0.53125 C 12.507812 -0.175781 12.046875 0 11.421875 0 L 10.75 0 C 9.65625 0 9.023438 -0.566406 8.859375 -1.703125 C 8.765625 -2.378906 8.625 -2.984375 8.4375 -3.515625 C 8.257812 -4.046875 8 -4.46875 7.65625 -4.78125 C 7.320312 -5.101562 6.867188 -5.265625 6.296875 -5.265625 L 5.515625 -5.265625 C 5.515625 -4.691406 5.515625 -4.113281 5.515625 -3.53125 C 5.515625 -2.945312 5.519531 -2.363281 5.53125 -1.78125 C 5.53125 -0.59375 4.9375 0 3.75 0 Z M 5.515625 -7.578125 L 6.234375 -7.578125 C 7.222656 -7.578125 7.9375 -7.75 8.375 -8.09375 C 8.8125 -8.445312 9.03125 -9.023438 9.03125 -9.828125 C 9.03125 -10.484375 8.832031 -10.957031 8.4375 -11.25 C 8.039062 -11.539062 7.410156 -11.6875 6.546875 -11.6875 L 5.53125 -11.6875 C 5.519531 -11.164062 5.515625 -10.597656 5.515625 -9.984375 C 5.515625 -9.378906 5.515625 -8.578125 5.515625 -7.578125 Z M 5.515625 -7.578125 "/></g></g><g style="fill:#f9afa6;fill-opacity:1;"><g transform="translate(149.99317, 132.971825)"><path style="stroke:none" d="M 7.234375 0.203125 C 3.109375 0.203125 1.046875 -2.296875 1.046875 -7.296875 C 1.046875 -12.296875 3.109375 -14.796875 7.234375 -14.796875 C 11.347656 -14.796875 13.40625 -12.296875 13.40625 -7.296875 C 13.40625 -2.296875 11.347656 0.203125 7.234375 0.203125 Z M 7.234375 -2.625 C 7.796875 -2.625 8.234375 -2.765625 8.546875 -3.046875 C 8.859375 -3.328125 9.078125 -3.804688 9.203125 -4.484375 C 9.328125 -5.171875 9.390625 -6.109375 9.390625 -7.296875 C 9.390625 -8.492188 9.328125 -9.425781 9.203125 -10.09375 C 9.078125 -10.769531 8.859375 -11.25 8.546875 -11.53125 C 8.234375 -11.8125 7.796875 -11.953125 7.234375 -11.953125 C 6.691406 -11.953125 6.257812 -11.8125 5.9375 -11.53125 C 5.625 -11.25 5.398438 -10.769531 5.265625 -10.09375 C 5.140625 -9.425781 5.078125 -8.492188 5.078125 -7.296875 C 5.078125 -6.109375 5.140625 -5.171875 5.265625 -4.484375 C 5.398438 -3.804688 5.625 -3.328125 5.9375 -3.046875 C 6.257812 -2.765625 6.691406 -2.625 7.234375 -2.625 Z M 7.234375 -2.625 "/></g></g><g style="fill:#f9afa6;fill-opacity:1;"><g transform="translate(168.681486, 132.971825)"><path style="stroke:none" d="M 7.109375 0.203125 C 3.347656 0.203125 1.46875 -1.523438 1.46875 -4.984375 C 1.46875 -6.023438 1.472656 -7.066406 1.484375 -8.109375 C 1.492188 -9.160156 1.5 -10.195312 1.5 -11.21875 C 1.5 -11.488281 1.5 -11.75 1.5 -12 C 1.5 -12.257812 1.5 -12.523438 1.5 -12.796875 C 1.5 -13.984375 2.085938 -14.578125 3.265625 -14.578125 L 3.640625 -14.578125 C 4.210938 -14.578125 4.65625 -14.421875 4.96875 -14.109375 C 5.28125 -13.804688 5.425781 -13.367188 5.40625 -12.796875 C 5.40625 -12.273438 5.40625 -11.757812 5.40625 -11.25 C 5.40625 -10.75 5.40625 -10.238281 5.40625 -9.71875 C 5.40625 -8.945312 5.40625 -8.175781 5.40625 -7.40625 C 5.40625 -6.644531 5.414062 -5.878906 5.4375 -5.109375 C 5.445312 -4.203125 5.578125 -3.5625 5.828125 -3.1875 C 6.078125 -2.8125 6.503906 -2.625 7.109375 -2.625 C 7.816406 -2.625 8.304688 -2.8125 8.578125 -3.1875 C 8.847656 -3.5625 8.984375 -4.203125 8.984375 -5.109375 C 9.003906 -5.878906 9.015625 -6.644531 9.015625 -7.40625 C 9.023438 -8.175781 9.03125 -8.945312 9.03125 -9.71875 C 9.03125 -10.226562 9.03125 -10.738281 9.03125 -11.25 C 9.03125 -11.757812 9.023438 -12.269531 9.015625 -12.78125 C 8.992188 -13.363281 9.140625 -13.804688 9.453125 -14.109375 C 9.773438 -14.421875 10.222656 -14.578125 10.796875 -14.578125 L 10.8125 -14.578125 C 11.394531 -14.578125 11.835938 -14.421875 12.140625 -14.109375 C 12.453125 -13.804688 12.601562 -13.367188 12.59375 -12.796875 C 12.59375 -12.273438 12.59375 -11.757812 12.59375 -11.25 C 12.59375 -10.75 12.59375 -10.238281 12.59375 -9.71875 C 12.59375 -8.9375 12.59375 -8.148438 12.59375 -7.359375 C 12.601562 -6.566406 12.609375 -5.773438 12.609375 -4.984375 C 12.609375 -1.523438 10.773438 0.203125 7.109375 0.203125 Z M 7.109375 0.203125 "/></g></g><g style="fill:#f9afa6;fill-opacity:1;"><g transform="translate(186.969954, 132.971825)"><path style="stroke:none" d="M 3.375 0 C 2.175781 0 1.578125 -0.59375 1.578125 -1.78125 C 1.585938 -2.695312 1.597656 -3.613281 1.609375 -4.53125 C 1.617188 -5.457031 1.625 -6.378906 1.625 -7.296875 C 1.625 -8.210938 1.617188 -9.128906 1.609375 -10.046875 C 1.597656 -10.960938 1.585938 -11.878906 1.578125 -12.796875 C 1.578125 -13.984375 2.175781 -14.578125 3.375 -14.578125 L 6.984375 -14.578125 C 9.117188 -14.578125 10.671875 -14.21875 11.640625 -13.5 C 12.609375 -12.78125 13.09375 -11.613281 13.09375 -10 C 13.09375 -8.84375 12.8125 -7.84375 12.25 -7 C 11.695312 -6.164062 10.914062 -5.519531 9.90625 -5.0625 C 8.894531 -4.601562 7.691406 -4.375 6.296875 -4.375 L 5.515625 -4.375 C 5.515625 -3.9375 5.515625 -3.503906 5.515625 -3.078125 C 5.515625 -2.648438 5.519531 -2.21875 5.53125 -1.78125 C 5.53125 -0.59375 4.9375 0 3.75 0 Z M 5.515625 -7.359375 L 6.234375 -7.359375 C 7.222656 -7.359375 7.9375 -7.550781 8.375 -7.9375 C 8.8125 -8.332031 9.03125 -8.960938 9.03125 -9.828125 C 9.03125 -10.484375 8.832031 -10.957031 8.4375 -11.25 C 8.039062 -11.539062 7.410156 -11.6875 6.546875 -11.6875 L 5.53125 -11.6875 C 5.519531 -11.125 5.515625 -10.519531 5.515625 -9.875 C 5.515625 -9.238281 5.515625 -8.398438 5.515625 -7.359375 Z M 5.515625 -7.359375 "/></g></g><g style="fill:#f9afa6;fill-opacity:1;"><g transform="translate(205.111118, 132.971825)"><path style="stroke:none" d=""/></g></g><g style="fill:#f9afa6;fill-opacity:1;"><g transform="translate(214.582029, 132.971825)"><path style="stroke:none" d="M 13.046875 -7.296875 C 13.035156 -6.390625 13.03125 -5.472656 13.03125 -4.546875 C 13.039062 -3.628906 13.046875 -2.707031 13.046875 -1.78125 C 13.054688 -1.207031 12.90625 -0.765625 12.59375 -0.453125 C 12.289062 -0.148438 11.851562 0 11.28125 0 L 10.875 0 C 10.300781 0 9.859375 -0.148438 9.546875 -0.453125 C 9.242188 -0.765625 9.097656 -1.207031 9.109375 -1.78125 C 9.128906 -2.445312 9.140625 -3.109375 9.140625 -3.765625 C 9.140625 -4.421875 9.140625 -5.070312 9.140625 -5.71875 L 5.515625 -5.71875 C 5.515625 -5.070312 5.515625 -4.421875 5.515625 -3.765625 C 5.515625 -3.109375 5.515625 -2.445312 5.515625 -1.78125 C 5.523438 -1.207031 5.375 -0.765625 5.0625 -0.453125 C 4.757812 -0.148438 4.320312 0 3.75 0 L 3.375 0 C 2.789062 0 2.34375 -0.148438 2.03125 -0.453125 C 1.726562 -0.765625 1.582031 -1.207031 1.59375 -1.78125 C 1.59375 -2.707031 1.597656 -3.628906 1.609375 -4.546875 C 1.617188 -5.472656 1.625 -6.390625 1.625 -7.296875 C 1.625 -8.210938 1.617188 -9.128906 1.609375 -10.046875 C 1.597656 -10.960938 1.59375 -11.878906 1.59375 -12.796875 C 1.582031 -13.367188 1.726562 -13.804688 2.03125 -14.109375 C 2.34375 -14.421875 2.789062 -14.578125 3.375 -14.578125 L 3.75 -14.578125 C 4.320312 -14.578125 4.757812 -14.421875 5.0625 -14.109375 C 5.375 -13.804688 5.523438 -13.367188 5.515625 -12.796875 C 5.515625 -12.109375 5.515625 -11.414062 5.515625 -10.71875 C 5.515625 -10.03125 5.515625 -9.332031 5.515625 -8.625 L 9.140625 -8.625 C 9.140625 -9.332031 9.140625 -10.03125 9.140625 -10.71875 C 9.140625 -11.414062 9.128906 -12.109375 9.109375 -12.796875 C 9.097656 -13.367188 9.242188 -13.804688 9.546875 -14.109375 C 9.859375 -14.421875 10.300781 -14.578125 10.875 -14.578125 L 11.28125 -14.578125 C 11.851562 -14.578125 12.289062 -14.421875 12.59375 -14.109375 C 12.90625 -13.804688 13.054688 -13.367188 13.046875 -12.796875 C 13.046875 -11.878906 13.046875 -10.960938 13.046875 -10.046875 C 13.046875 -9.128906 13.046875 -8.210938 13.046875 -7.296875 Z M 13.046875 -7.296875 "/></g></g><g style="fill:#f9afa6;fill-opacity:1;"><g transform="translate(233.438698, 132.971825)"><path style="stroke:none" d="M 7.234375 0.203125 C 3.109375 0.203125 1.046875 -2.296875 1.046875 -7.296875 C 1.046875 -12.296875 3.109375 -14.796875 7.234375 -14.796875 C 11.347656 -14.796875 13.40625 -12.296875 13.40625 -7.296875 C 13.40625 -2.296875 11.347656 0.203125 7.234375 0.203125 Z M 7.234375 -2.625 C 7.796875 -2.625 8.234375 -2.765625 8.546875 -3.046875 C 8.859375 -3.328125 9.078125 -3.804688 9.203125 -4.484375 C 9.328125 -5.171875 9.390625 -6.109375 9.390625 -7.296875 C 9.390625 -8.492188 9.328125 -9.425781 9.203125 -10.09375 C 9.078125 -10.769531 8.859375 -11.25 8.546875 -11.53125 C 8.234375 -11.8125 7.796875 -11.953125 7.234375 -11.953125 C 6.691406 -11.953125 6.257812 -11.8125 5.9375 -11.53125 C 5.625 -11.25 5.398438 -10.769531 5.265625 -10.09375 C 5.140625 -9.425781 5.078125 -8.492188 5.078125 -7.296875 C 5.078125 -6.109375 5.140625 -5.171875 5.265625 -4.484375 C 5.398438 -3.804688 5.625 -3.328125 5.9375 -3.046875 C 6.257812 -2.765625 6.691406 -2.625 7.234375 -2.625 Z M 7.234375 -2.625 "/></g></g><g style="fill:#f9afa6;fill-opacity:1;"><g transform="translate(252.127015, 132.971825)"><path style="stroke:none" d="M 14.84375 -14.578125 C 16.03125 -14.578125 16.625 -13.984375 16.625 -12.796875 C 16.625 -11.878906 16.617188 -10.960938 16.609375 -10.046875 C 16.609375 -9.128906 16.609375 -8.210938 16.609375 -7.296875 C 16.609375 -6.378906 16.609375 -5.457031 16.609375 -4.53125 C 16.617188 -3.613281 16.625 -2.695312 16.625 -1.78125 C 16.625 -0.59375 16.03125 0 14.84375 0 L 14.453125 0 C 13.265625 0 12.671875 -0.59375 12.671875 -1.78125 C 12.679688 -2.695312 12.691406 -3.613281 12.703125 -4.53125 C 12.710938 -5.457031 12.71875 -6.378906 12.71875 -7.296875 L 12.6875 -10.078125 L 12.609375 -10.078125 L 10.203125 -3.140625 C 9.867188 -2.171875 9.359375 -1.6875 8.671875 -1.6875 C 7.972656 -1.6875 7.46875 -2.175781 7.15625 -3.15625 L 4.953125 -10.078125 L 4.84375 -10.078125 C 4.851562 -8.804688 4.863281 -7.6875 4.875 -6.71875 C 4.894531 -5.75 4.914062 -4.867188 4.9375 -4.078125 C 4.957031 -3.296875 4.984375 -2.539062 5.015625 -1.8125 C 5.035156 -1.21875 4.898438 -0.765625 4.609375 -0.453125 C 4.316406 -0.148438 3.890625 0 3.328125 0 C 2.765625 0 2.332031 -0.148438 2.03125 -0.453125 C 1.726562 -0.765625 1.582031 -1.207031 1.59375 -1.78125 C 1.613281 -5.457031 1.613281 -9.128906 1.59375 -12.796875 C 1.582031 -13.367188 1.726562 -13.804688 2.03125 -14.109375 C 2.34375 -14.421875 2.789062 -14.578125 3.375 -14.578125 L 5.296875 -14.578125 C 6.304688 -14.578125 6.988281 -14.109375 7.34375 -13.171875 L 9.15625 -8.390625 L 10.671875 -13.109375 C 10.984375 -14.085938 11.65625 -14.578125 12.6875 -14.578125 Z M 14.84375 -14.578125 "/></g></g><g style="fill:#f9afa6;fill-opacity:1;"><g transform="translate(274.540161, 132.971825)"><path style="stroke:none" d="M 5.515625 -2.796875 C 6.128906 -2.804688 6.742188 -2.8125 7.359375 -2.8125 C 7.984375 -2.8125 8.585938 -2.820312 9.171875 -2.84375 C 10.367188 -2.84375 10.96875 -2.375 10.96875 -1.4375 C 10.96875 -0.476562 10.367188 0 9.171875 0 L 3.375 0 C 2.789062 0 2.34375 -0.148438 2.03125 -0.453125 C 1.726562 -0.765625 1.582031 -1.207031 1.59375 -1.78125 C 1.59375 -2.707031 1.597656 -3.628906 1.609375 -4.546875 C 1.617188 -5.472656 1.625 -6.390625 1.625 -7.296875 C 1.625 -8.210938 1.617188 -9.128906 1.609375 -10.046875 C 1.597656 -10.960938 1.59375 -11.878906 1.59375 -12.796875 C 1.582031 -13.367188 1.726562 -13.804688 2.03125 -14.109375 C 2.34375 -14.421875 2.789062 -14.578125 3.375 -14.578125 L 8.96875 -14.578125 C 10.15625 -14.578125 10.75 -14.109375 10.75 -13.171875 C 10.75 -12.222656 10.15625 -11.75 8.96875 -11.75 C 8.40625 -11.757812 7.832031 -11.765625 7.25 -11.765625 C 6.664062 -11.765625 6.085938 -11.769531 5.515625 -11.78125 L 5.515625 -8.5625 C 5.960938 -8.582031 6.40625 -8.59375 6.84375 -8.59375 C 7.28125 -8.59375 7.707031 -8.597656 8.125 -8.609375 C 9.3125 -8.609375 9.90625 -8.140625 9.90625 -7.203125 C 9.90625 -6.242188 9.3125 -5.765625 8.125 -5.765625 C 7.707031 -5.773438 7.28125 -5.78125 6.84375 -5.78125 C 6.40625 -5.78125 5.960938 -5.789062 5.515625 -5.8125 Z M 5.515625 -2.796875 "/></g></g></g></svg>