<svg xmlns="http://www.w3.org/2000/svg" xmlns:xlink="http://www.w3.org/1999/xlink" width="500" zoomAndPan="magnify" viewBox="0 0 375 374.999991" height="500" preserveAspectRatio="xMidYMid meet" version="1.2"><defs><clipPath id="15c62003d2"><path d="M 261 177 L 270 177 L 270 214 L 261 214 Z M 261 177 "/></clipPath><clipPath id="3b445bc6bd"><path d="M 252.675781 179.78125 L 264.296875 176.78125 L 273.667969 213.09375 L 262.046875 216.089844 Z M 252.675781 179.78125 "/></clipPath><clipPath id="5fcf71b79a"><path d="M 252.675781 179.78125 L 264.296875 176.78125 L 273.667969 213.09375 L 262.046875 216.089844 Z M 252.675781 179.78125 "/></clipPath><clipPath id="48777e0b3f"><path d="M 242.773438 172 L 252 172 L 252 213.90625 L 242.773438 213.90625 Z M 242.773438 172 "/></clipPath><clipPath id="20e57d9ff4"><path d="M 270 162 L 282 162 L 282 172 L 270 172 Z M 270 162 "/></clipPath><clipPath id="f895001683"><path d="M 272.457031 160.96875 L 282.546875 163.871094 L 279.855469 173.242188 L 269.765625 170.339844 Z M 272.457031 160.96875 "/></clipPath><clipPath id="e5fb40a9a1"><path d="M 272.457031 160.96875 L 282.546875 163.871094 L 279.855469 173.242188 L 269.765625 170.339844 Z M 272.457031 160.96875 "/></clipPath><clipPath id="9dedf37a78"><path d="M 257 162 L 269 162 L 269 173 L 257 173 Z M 257 162 "/></clipPath><clipPath id="67fb9d6220"><path d="M 260.410156 160.96875 L 270.410156 166.125 L 265.945312 174.792969 L 255.945312 169.636719 Z M 260.410156 160.96875 "/></clipPath><clipPath id="98e2ad69cf"><path d="M 260.410156 160.96875 L 270.410156 166.125 L 265.945312 174.792969 L 255.945312 169.636719 Z M 260.410156 160.96875 "/></clipPath><clipPath id="ac71c85635"><path d="M 270 170 L 282 170 L 282 181 L 270 181 Z M 270 170 "/></clipPath><clipPath id="2bd8cde78f"><path d="M 273.367188 168.710938 L 283.367188 173.867188 L 278.902344 182.53125 L 268.902344 177.378906 Z M 273.367188 168.710938 "/></clipPath><clipPath id="2b89c27db7"><path d="M 273.367188 168.710938 L 283.367188 173.867188 L 278.902344 182.53125 L 268.902344 177.378906 Z M 273.367188 168.710938 "/></clipPath><clipPath id="2e2b444665"><path d="M 263.152344 170.515625 L 272.902344 170.515625 L 272.902344 183.265625 L 263.152344 183.265625 Z M 263.152344 170.515625 "/></clipPath><clipPath id="3c3a26e0fe"><path d="M 257.5 169.101562 L 268 169.101562 L 268 178.851562 L 257.5 178.851562 Z M 257.5 169.101562 "/></clipPath><clipPath id="45fca89094"><path d="M 263 158 L 275 158 L 275 180 L 263 180 Z M 263 158 "/></clipPath><clipPath id="8d30e553ce"><path d="M 263.152344 179.523438 L 264.203125 157.800781 L 274.691406 158.308594 L 273.640625 180.03125 Z M 263.152344 179.523438 "/></clipPath><clipPath id="e21c7494bb"><path d="M 263.152344 179.523438 L 264.203125 157.800781 L 274.691406 158.308594 L 273.640625 180.03125 Z M 263.152344 179.523438 "/></clipPath><clipPath id="1df0d711ed"><path d="M 247 182 L 258 182 L 258 192 L 247 192 Z M 247 182 "/></clipPath><clipPath id="e7419c7050"><path d="M 254.625 180.007812 L 258.78125 189.652344 L 249.828125 193.511719 L 245.671875 183.867188 Z M 254.625 180.007812 "/></clipPath><clipPath id="e4e337eff6"><path d="M 254.625 180.007812 L 258.78125 189.652344 L 249.828125 193.511719 L 245.671875 183.867188 Z M 254.625 180.007812 "/></clipPath><clipPath id="59796377a2"><path d="M 242 170 L 252 170 L 252 181 L 242 181 Z M 242 170 "/></clipPath><clipPath id="0e52132709"><path d="M 250.910156 169.722656 L 251.613281 180.949219 L 241.882812 181.558594 L 241.179688 170.332031 Z M 250.910156 169.722656 "/></clipPath><clipPath id="86110b85e3"><path d="M 250.910156 169.722656 L 251.613281 180.949219 L 241.882812 181.558594 L 241.179688 170.332031 Z M 250.910156 169.722656 "/></clipPath><clipPath id="f65efe3b56"><path d="M 240 185 L 250 185 L 250 196 L 240 196 Z M 240 185 "/></clipPath><clipPath id="4050b5cb7c"><path d="M 249.578125 184.734375 L 250.277344 195.964844 L 240.546875 196.570312 L 239.847656 185.34375 Z M 249.578125 184.734375 "/></clipPath><clipPath id="68fa496b68"><path d="M 249.578125 184.734375 L 250.277344 195.964844 L 240.546875 196.570312 L 239.847656 185.34375 Z M 249.578125 184.734375 "/></clipPath><clipPath id="59506147f9"><path d="M 232 181 L 245 181 L 245 192 L 232 192 Z M 232 181 "/></clipPath><clipPath id="7c77a8ed5a"><path d="M 242.441406 179.207031 L 246.445312 188.097656 L 234.816406 193.332031 L 230.816406 184.441406 Z M 242.441406 179.207031 "/></clipPath><clipPath id="eec2316640"><path d="M 242.441406 179.207031 L 246.445312 188.097656 L 234.816406 193.332031 L 230.816406 184.441406 Z M 242.441406 179.207031 "/></clipPath><clipPath id="88bd2e23c0"><path d="M 234 173 L 245 173 L 245 183 L 234 183 Z M 234 173 "/></clipPath><clipPath id="182bb54b54"><path d="M 241.203125 170.925781 L 246.585938 179.941406 L 238.214844 184.9375 L 232.832031 175.921875 Z M 241.203125 170.925781 "/></clipPath><clipPath id="bbb632dfae"><path d="M 241.203125 170.925781 L 246.585938 179.941406 L 238.214844 184.9375 L 232.832031 175.921875 Z M 241.203125 170.925781 "/></clipPath><clipPath id="638f13c2ff"><path d="M 238 176 L 258 176 L 258 191 L 238 191 Z M 238 176 "/></clipPath><clipPath id="f25669e7fe"><path d="M 236.386719 183.554688 L 255.578125 173.320312 L 260.519531 182.585938 L 241.328125 192.820312 Z M 236.386719 183.554688 "/></clipPath><clipPath id="197da10b22"><path d="M 236.386719 183.554688 L 255.578125 173.320312 L 260.519531 182.585938 L 241.328125 192.820312 Z M 236.386719 183.554688 "/></clipPath><clipPath id="99cce46d53"><path d="M 265.605469 168.046875 L 270.855469 168.046875 L 270.855469 173.296875 L 265.605469 173.296875 Z M 265.605469 168.046875 "/></clipPath><clipPath id="dd04be445c"><path d="M 243.09375 180.816406 L 248.34375 180.816406 L 248.34375 186.066406 L 243.09375 186.066406 Z M 243.09375 180.816406 "/></clipPath><clipPath id="11ace2273e"><path d="M 207 170 L 218 170 L 218 214 L 207 214 Z M 207 170 "/></clipPath><clipPath id="00951e21fe"><path d="M 197.324219 173.300781 L 211.121094 169.738281 L 222.175781 212.585938 L 208.378906 216.148438 Z M 197.324219 173.300781 "/></clipPath><clipPath id="07d168fdad"><path d="M 197.324219 173.300781 L 211.121094 169.738281 L 222.175781 212.585938 L 208.378906 216.148438 Z M 197.324219 173.300781 "/></clipPath><clipPath id="c10a71ac92"><path d="M 185.773438 164.25 L 196 164.25 L 196 213 L 185.773438 213 Z M 185.773438 164.25 "/></clipPath><clipPath id="dc1b3b8df6"><path d="M 187 149 L 200 149 L 200 161 L 187 161 Z M 187 149 "/></clipPath><clipPath id="84d7eb7dce"><path d="M 188.941406 147.390625 L 200.472656 150.703125 L 197.160156 162.238281 L 185.625 158.921875 Z M 188.941406 147.390625 "/></clipPath><clipPath id="7755c61a89"><path d="M 188.941406 147.390625 L 200.472656 150.703125 L 197.160156 162.238281 L 185.625 158.921875 Z M 188.941406 147.390625 "/></clipPath><clipPath id="cca65e7b56"><path d="M 171 149 L 184 149 L 184 161 L 171 161 Z M 171 149 "/></clipPath><clipPath id="1b78123a5f"><path d="M 174.730469 147.386719 L 186.066406 153.230469 L 180.910156 163.230469 L 169.578125 157.386719 Z M 174.730469 147.386719 "/></clipPath><clipPath id="7483877eaf"><path d="M 174.730469 147.386719 L 186.066406 153.230469 L 180.910156 163.230469 L 169.578125 157.386719 Z M 174.730469 147.386719 "/></clipPath><clipPath id="1e68247bb1"><path d="M 186 158 L 200 158 L 200 170 L 186 170 Z M 186 158 "/></clipPath><clipPath id="922bd1c454"><path d="M 190.015625 156.519531 L 201.347656 162.359375 L 196.195312 172.359375 L 184.863281 166.519531 Z M 190.015625 156.519531 "/></clipPath><clipPath id="4d5dd006b2"><path d="M 190.015625 156.519531 L 201.347656 162.359375 L 196.195312 172.359375 L 184.863281 166.519531 Z M 190.015625 156.519531 "/></clipPath><clipPath id="6eaecff9eb"><path d="M 178 158.648438 L 189.964844 158.648438 L 189.964844 173.648438 L 178 173.648438 Z M 178 158.648438 "/></clipPath><clipPath id="004ea8246f"><path d="M 171.296875 157 L 183.296875 157 L 183.296875 168.980469 L 171.296875 168.980469 Z M 171.296875 157 "/></clipPath><clipPath id="fff9d60854"><path d="M 178 144 L 192 144 L 192 170 L 178 170 Z M 178 144 "/></clipPath><clipPath id="e171bf2048"><path d="M 177.964844 169.277344 L 179.199219 143.804688 L 191.933594 144.421875 L 190.699219 169.894531 Z M 177.964844 169.277344 "/></clipPath><clipPath id="d9630048b8"><path d="M 177.964844 169.277344 L 179.199219 143.804688 L 191.933594 144.421875 L 190.699219 169.894531 Z M 177.964844 169.277344 "/></clipPath><clipPath id="ac463f5cbc"><path d="M 216 172 L 230 172 L 230 184 L 216 184 Z M 216 172 "/></clipPath><clipPath id="c009b3c452"><path d="M 225.714844 169.765625 L 230.464844 180.785156 L 219.441406 185.535156 L 214.695312 174.511719 Z M 225.714844 169.765625 "/></clipPath><clipPath id="c2c7a26493"><path d="M 225.714844 169.765625 L 230.464844 180.785156 L 219.441406 185.535156 L 214.695312 174.511719 Z M 225.714844 169.765625 "/></clipPath><clipPath id="28d08ba499"><path d="M 211 158 L 222 158 L 222 171 L 211 171 Z M 211 158 "/></clipPath><clipPath id="bf179abf6f"><path d="M 221.335938 157.628906 L 222.132812 170.355469 L 210.902344 171.054688 L 210.109375 158.332031 Z M 221.335938 157.628906 "/></clipPath><clipPath id="cf3ed22f2c"><path d="M 221.335938 157.628906 L 222.132812 170.355469 L 210.902344 171.054688 L 210.109375 158.332031 Z M 221.335938 157.628906 "/></clipPath><clipPath id="e9a46897b6"><path d="M 209 175 L 220 175 L 220 189 L 209 189 Z M 209 175 "/></clipPath><clipPath id="64f5001457"><path d="M 219.761719 175.335938 L 220.558594 188.0625 L 209.328125 188.761719 L 208.535156 176.039062 Z M 219.761719 175.335938 "/></clipPath><clipPath id="12862b2f4c"><path d="M 219.761719 175.335938 L 220.558594 188.0625 L 209.328125 188.761719 L 208.535156 176.039062 Z M 219.761719 175.335938 "/></clipPath><clipPath id="206e64984e"><path d="M 199 171 L 215 171 L 215 184 L 199 184 Z M 199 171 "/></clipPath><clipPath id="84e6494913"><path d="M 211.335938 168.8125 L 216.261719 179.753906 L 202.585938 185.910156 L 197.65625 174.96875 Z M 211.335938 168.8125 "/></clipPath><clipPath id="2ab5ce5f8b"><path d="M 211.335938 168.8125 L 216.261719 179.753906 L 202.585938 185.910156 L 197.65625 174.96875 Z M 211.335938 168.8125 "/></clipPath><clipPath id="14a938df0e"><path d="M 201 162 L 215 162 L 215 173 L 201 173 Z M 201 162 "/></clipPath><clipPath id="c60226866d"><path d="M 209.878906 159.046875 L 216.03125 169.351562 L 205.730469 175.503906 L 199.578125 165.199219 Z M 209.878906 159.046875 "/></clipPath><clipPath id="6d880a6d39"><path d="M 209.878906 159.046875 L 216.03125 169.351562 L 205.730469 175.503906 L 199.578125 165.199219 Z M 209.878906 159.046875 "/></clipPath><clipPath id="24c00dd705"><path d="M 206 165 L 230 165 L 230 182 L 206 182 Z M 206 165 "/></clipPath><clipPath id="c9cee516fc"><path d="M 204.199219 173.945312 L 226.699219 161.945312 L 232.699219 173.199219 L 210.195312 185.195312 Z M 204.199219 173.945312 "/></clipPath><clipPath id="aa65aea6fc"><path d="M 204.199219 173.945312 L 226.699219 161.945312 L 232.699219 173.199219 L 210.195312 185.195312 Z M 204.199219 173.945312 "/></clipPath><clipPath id="7760ebe357"><path d="M 180.855469 155.738281 L 187.605469 155.738281 L 187.605469 162.488281 L 180.855469 162.488281 Z M 180.855469 155.738281 "/></clipPath><clipPath id="5430910892"><path d="M 212.109375 170.71875 L 218.859375 170.71875 L 218.859375 177.46875 L 212.109375 177.46875 Z M 212.109375 170.71875 "/></clipPath></defs><g id="49d4728762"><g style="fill:#f9afa6;fill-opacity:1;"><g transform="translate(93.704809, 214.205612)"><path style="stroke:none" d="M 6.40625 0 C 4.132812 0 3 -1.132812 3 -3.40625 L 3 -24.3125 C 3 -26.582031 4.132812 -27.71875 6.40625 -27.71875 L 7.125 -27.71875 C 9.382812 -27.71875 10.515625 -26.582031 10.515625 -24.3125 L 10.515625 -3.40625 C 10.515625 -1.132812 9.382812 0 7.125 0 Z M 6.40625 0 "/></g></g><g style="fill:#f9afa6;fill-opacity:1;"><g transform="translate(109.62346, 214.205612)"><path style="stroke:none" d="M 5.953125 0 C 4.804688 0 3.953125 -0.3125 3.390625 -0.9375 C 2.835938 -1.5625 2.613281 -2.4375 2.71875 -3.5625 L 2.796875 -4.71875 C 3.066406 -7.570312 3.59375 -9.859375 4.375 -11.578125 C 5.164062 -13.296875 6.203125 -14.503906 7.484375 -15.203125 L 7.484375 -15.359375 C 6.679688 -15.890625 5.96875 -16.519531 5.34375 -17.25 C 4.71875 -17.988281 4.191406 -18.910156 3.765625 -20.015625 C 3.335938 -21.128906 3.015625 -22.507812 2.796875 -24.15625 C 2.660156 -25.28125 2.875 -26.148438 3.4375 -26.765625 C 4 -27.378906 4.851562 -27.6875 6 -27.6875 L 7.59375 -27.6875 C 9.707031 -27.6875 10.910156 -26.535156 11.203125 -24.234375 C 11.460938 -22.367188 11.710938 -20.914062 11.953125 -19.875 C 12.191406 -18.832031 12.484375 -18.097656 12.828125 -17.671875 C 13.179688 -17.253906 13.648438 -17.046875 14.234375 -17.046875 C 14.796875 -17.046875 15.265625 -17.242188 15.640625 -17.640625 C 16.015625 -18.035156 16.3125 -18.738281 16.53125 -19.75 C 16.757812 -20.769531 16.890625 -22.1875 16.921875 -24 C 16.972656 -26.457031 18.09375 -27.6875 20.28125 -27.6875 L 21.3125 -27.6875 C 22.46875 -27.6875 23.320312 -27.378906 23.875 -26.765625 C 24.4375 -26.148438 24.648438 -25.28125 24.515625 -24.15625 C 24.035156 -21.675781 23.414062 -19.78125 22.65625 -18.46875 C 21.894531 -17.164062 20.835938 -16.128906 19.484375 -15.359375 L 19.484375 -15.203125 C 20.835938 -14.484375 21.898438 -13.25 22.671875 -11.5 C 23.453125 -9.75 24.066406 -7.488281 24.515625 -4.71875 L 24.59375 -3.5625 C 24.707031 -2.4375 24.484375 -1.5625 23.921875 -0.9375 C 23.359375 -0.3125 22.503906 0 21.359375 0 L 19.875 0 C 17.769531 0 16.597656 -1.171875 16.359375 -3.515625 C 16.085938 -6.210938 15.648438 -8.09375 15.046875 -9.15625 C 14.453125 -10.226562 13.691406 -10.765625 12.765625 -10.765625 C 11.878906 -10.765625 11.226562 -10.25 10.8125 -9.21875 C 10.40625 -8.195312 10.175781 -6.335938 10.125 -3.640625 C 10.070312 -1.210938 8.9375 0 6.71875 0 Z M 5.953125 0 "/></g></g><g style="fill:#f9afa6;fill-opacity:1;"><g transform="translate(139.340743, 214.205612)"><path style="stroke:none" d="M 6.40625 0 C 4.132812 0 3 -1.132812 3 -3.40625 L 3 -24.3125 C 3 -26.582031 4.132812 -27.71875 6.40625 -27.71875 L 7.125 -27.71875 C 9.382812 -27.71875 10.515625 -26.582031 10.515625 -24.3125 L 10.515625 -3.40625 C 10.515625 -1.132812 9.382812 0 7.125 0 Z M 6.40625 0 "/></g></g><g style="fill:#f9afa6;fill-opacity:1;"><g transform="translate(155.259394, 214.205612)"><path style="stroke:none" d="M 12.765625 -28.125 C 14.492188 -28.125 16.007812 -27.71875 17.3125 -26.90625 C 18.625 -26.09375 19.71875 -24.75 20.59375 -22.875 C 21.476562 -21.007812 22.148438 -18.503906 22.609375 -15.359375 C 23.078125 -12.210938 23.351562 -8.289062 23.4375 -3.59375 C 23.46875 -2.445312 23.1875 -1.5625 22.59375 -0.9375 C 22.007812 -0.3125 21.171875 0 20.078125 0 L 19.484375 0 C 17.210938 0 16.078125 -1.039062 16.078125 -3.125 C 16.078125 -3.65625 16.078125 -4.171875 16.078125 -4.671875 C 16.078125 -5.179688 16.066406 -5.691406 16.046875 -6.203125 L 8.953125 -6.203125 C 8.953125 -5.773438 8.945312 -5.328125 8.9375 -4.859375 C 8.925781 -4.390625 8.921875 -3.90625 8.921875 -3.40625 C 8.921875 -1.132812 7.800781 0 5.5625 0 C 4.488281 0 3.660156 -0.289062 3.078125 -0.875 C 2.492188 -1.46875 2.210938 -2.320312 2.234375 -3.4375 C 2.265625 -4.53125 2.289062 -5.570312 2.3125 -6.5625 C 2.34375 -7.550781 2.382812 -8.5 2.4375 -9.40625 C 2.757812 -14.125 3.351562 -17.847656 4.21875 -20.578125 C 5.082031 -23.316406 6.226562 -25.257812 7.65625 -26.40625 C 9.082031 -27.550781 10.785156 -28.125 12.765625 -28.125 Z M 9.046875 -10.953125 L 15.875 -10.953125 C 15.71875 -13.941406 15.476562 -16.269531 15.15625 -17.9375 C 14.84375 -19.601562 14.4375 -20.773438 13.9375 -21.453125 C 13.445312 -22.140625 12.867188 -22.484375 12.203125 -22.484375 C 11.535156 -22.484375 10.976562 -22.140625 10.53125 -21.453125 C 10.09375 -20.773438 9.757812 -19.601562 9.53125 -17.9375 C 9.3125 -16.269531 9.148438 -13.941406 9.046875 -10.953125 Z M 9.046875 -10.953125 "/></g></g><path style="fill:none;stroke-width:5;stroke-linecap:butt;stroke-linejoin:miter;stroke:#fbdcd9;stroke-opacity:1;stroke-miterlimit:4;" d="M -0.000073355 2.499459 L 73.586878 2.499113 " transform="matrix(-0.00742815,-0.749963,0.749963,-0.00742815,87.35206,227.557574)"/><path style="fill:none;stroke-width:5;stroke-linecap:butt;stroke-linejoin:miter;stroke:#fbdcd9;stroke-opacity:1;stroke-miterlimit:4;" d="M 0.000181185 2.502069 L 88.626028 2.497984 " transform="matrix(-0.749993,-0.00329617,0.00329617,-0.749993,153.925482,228.548409)"/><path style="fill:none;stroke-width:5;stroke-linecap:butt;stroke-linejoin:miter;stroke:#fbdcd9;stroke-opacity:1;stroke-miterlimit:4;" d="M 0.000902978 2.499693 L 62.247119 2.499693 " transform="matrix(0.528333,-0.528333,0.528333,0.528333,86.819478,172.160276)"/><path style="fill:none;stroke-width:5;stroke-linecap:butt;stroke-linejoin:miter;stroke:#fbdcd9;stroke-opacity:1;stroke-miterlimit:4;" d="M 0.00148712 2.498989 L 62.232916 2.498989 " transform="matrix(0.528333,0.528333,-0.528333,0.528333,120.264825,139.159385)"/><g clip-rule="nonzero" clip-path="url(#15c62003d2)"><g clip-rule="nonzero" clip-path="url(#3b445bc6bd)"><g clip-rule="nonzero" clip-path="url(#5fcf71b79a)"><path style=" stroke:none;fill-rule:nonzero;fill:#517564;fill-opacity:1;" d="M 268.871094 213.769531 C 268.628906 213.832031 268.339844 213.714844 268.15625 213.503906 C 256.742188 195.535156 263.160156 177.871094 263.230469 177.660156 C 263.351562 177.371094 263.699219 177.214844 264.046875 177.320312 C 264.398438 177.421875 264.550781 177.769531 264.386719 178.136719 C 264.359375 178.273438 258.121094 195.375 269.273438 212.828125 C 269.472656 213.097656 269.386719 213.507812 269.113281 213.707031 C 269.054688 213.722656 268.992188 213.738281 268.871094 213.769531 Z M 268.871094 213.769531 "/></g></g></g><g clip-rule="nonzero" clip-path="url(#48777e0b3f)"><path style=" stroke:none;fill-rule:nonzero;fill:#517564;fill-opacity:1;" d="M 248.164062 213.304688 C 248.445312 213.304688 248.726562 213.097656 248.867188 212.816406 C 256.214844 190.132812 244.316406 172.773438 244.175781 172.5625 C 243.964844 172.28125 243.542969 172.210938 243.195312 172.421875 C 242.84375 172.632812 242.773438 173.050781 243.054688 173.402344 C 243.125 173.542969 254.675781 190.34375 247.464844 212.398438 C 247.324219 212.746094 247.535156 213.167969 247.886719 213.304688 C 247.957031 213.304688 248.023438 213.304688 248.164062 213.304688 Z M 248.164062 213.304688 "/></g><g clip-rule="nonzero" clip-path="url(#20e57d9ff4)"><g clip-rule="nonzero" clip-path="url(#f895001683)"><g clip-rule="nonzero" clip-path="url(#e5fb40a9a1)"><path style=" stroke:none;fill-rule:evenodd;fill:#fbdcd9;fill-opacity:1;" d="M 276.886719 162.914062 C 275.949219 163.175781 274.863281 163.785156 274.023438 164.140625 C 273.171875 164.496094 272.542969 164.605469 271.945312 165.203125 C 271.34375 165.804688 270.753906 166.902344 270.851562 168.035156 C 270.96875 169.164062 271.761719 170.324219 273.113281 171 C 274.457031 171.6875 276.371094 171.890625 277.722656 171.472656 C 279.074219 171.066406 279.867188 170.027344 280.417969 168.835938 C 280.964844 167.648438 281.261719 166.300781 281.058594 165.277344 C 280.871094 164.253906 280.171875 163.558594 279.421875 163.160156 C 278.660156 162.753906 277.835938 162.65625 276.886719 162.914062 Z M 276.886719 162.914062 "/></g></g></g><g clip-rule="nonzero" clip-path="url(#9dedf37a78)"><g clip-rule="nonzero" clip-path="url(#67fb9d6220)"><g clip-rule="nonzero" clip-path="url(#98e2ad69cf)"><path style=" stroke:none;fill-rule:evenodd;fill:#fbdcd9;fill-opacity:1;" d="M 265.421875 163.746094 C 264.199219 162.925781 262.859375 162.492188 261.542969 162.816406 C 260.242188 163.132812 258.976562 164.179688 258.253906 165.371094 C 257.535156 166.546875 257.367188 167.859375 258.289062 169.238281 C 259.21875 170.625 261.25 172.082031 263.054688 172.410156 C 264.863281 172.753906 266.464844 171.960938 267.378906 170.882812 C 268.296875 169.792969 268.53125 168.40625 268.117188 167.109375 C 267.695312 165.796875 266.628906 164.574219 265.421875 163.746094 Z M 265.421875 163.746094 "/></g></g></g><g clip-rule="nonzero" clip-path="url(#ac71c85635)"><g clip-rule="nonzero" clip-path="url(#2bd8cde78f)"><g clip-rule="nonzero" clip-path="url(#2b89c27db7)"><path style=" stroke:none;fill-rule:evenodd;fill:#fbdcd9;fill-opacity:1;" d="M 278.378906 171.488281 C 277.15625 170.667969 275.816406 170.234375 274.5 170.558594 C 273.199219 170.875 271.933594 171.921875 271.210938 173.109375 C 270.492188 174.289062 270.324219 175.601562 271.246094 176.980469 C 272.175781 178.363281 274.207031 179.824219 276.011719 180.148438 C 277.824219 180.492188 279.421875 179.703125 280.335938 178.621094 C 281.253906 177.535156 281.488281 176.148438 281.074219 174.851562 C 280.652344 173.535156 279.585938 172.3125 278.378906 171.488281 Z M 278.378906 171.488281 "/></g></g></g><g clip-rule="nonzero" clip-path="url(#2e2b444665)"><path style=" stroke:none;fill-rule:evenodd;fill:#fbdcd9;fill-opacity:1;" d="M 269.015625 170.78125 C 267.832031 170.519531 266.789062 170.722656 265.890625 171.199219 C 264.992188 171.664062 264.222656 172.417969 263.761719 174.066406 C 263.3125 175.71875 263.152344 178.296875 263.761719 180.019531 C 264.382812 181.757812 265.757812 182.65625 267.164062 182.957031 C 268.582031 183.261719 270.015625 182.972656 270.988281 182.394531 C 271.941406 181.816406 272.433594 180.945312 272.667969 179.25 C 272.898438 177.558594 272.871094 175.039062 272.203125 173.414062 C 271.523438 171.777344 270.203125 171.054688 269.015625 170.78125 Z M 269.015625 170.78125 "/></g><g clip-rule="nonzero" clip-path="url(#3c3a26e0fe)"><path style=" stroke:none;fill-rule:evenodd;fill:#fbdcd9;fill-opacity:1;" d="M 262.292969 169.746094 C 261.460938 170.253906 260.589844 171.140625 259.878906 171.714844 C 259.160156 172.292969 258.582031 172.570312 258.175781 173.3125 C 257.765625 174.054688 257.5 175.269531 257.90625 176.335938 C 258.328125 177.386719 259.414062 178.285156 260.898438 178.558594 C 262.382812 178.847656 264.277344 178.515625 265.460938 177.742188 C 266.644531 176.976562 267.121094 175.757812 267.320312 174.460938 C 267.519531 173.167969 267.433594 171.792969 266.957031 170.863281 C 266.492188 169.933594 265.625 169.457031 264.796875 169.28125 C 263.953125 169.101562 263.136719 169.234375 262.292969 169.746094 Z M 262.292969 169.746094 "/></g><g clip-rule="nonzero" clip-path="url(#45fca89094)"><g clip-rule="nonzero" clip-path="url(#8d30e553ce)"><g clip-rule="nonzero" clip-path="url(#e21c7494bb)"><path style=" stroke:none;fill-rule:nonzero;fill:#fbdcd9;fill-opacity:1;" d="M 269.414062 158.804688 C 269.757812 158.820312 270.09375 158.902344 270.425781 159.054688 C 270.757812 159.203125 271.074219 159.417969 271.378906 159.699219 C 271.6875 159.976562 271.972656 160.316406 272.238281 160.710938 C 272.507812 161.109375 272.75 161.554688 272.972656 162.054688 C 273.191406 162.554688 273.382812 163.09375 273.546875 163.675781 C 273.710938 164.257812 273.84375 164.871094 273.945312 165.511719 C 274.042969 166.15625 274.113281 166.816406 274.148438 167.492188 C 274.179688 168.171875 274.179688 168.855469 274.148438 169.542969 C 274.113281 170.234375 274.046875 170.914062 273.949219 171.585938 C 273.847656 172.257812 273.71875 172.910156 273.554688 173.539062 C 273.390625 174.167969 273.203125 174.765625 272.980469 175.328125 C 272.761719 175.890625 272.519531 176.410156 272.253906 176.886719 C 271.984375 177.363281 271.699219 177.785156 271.394531 178.152344 C 271.089844 178.519531 270.773438 178.828125 270.441406 179.078125 C 270.109375 179.324219 269.773438 179.507812 269.429688 179.625 C 269.085938 179.746094 268.742188 179.796875 268.394531 179.777344 C 268.050781 179.761719 267.714844 179.679688 267.382812 179.527344 C 267.050781 179.375 266.734375 179.160156 266.429688 178.882812 C 266.121094 178.605469 265.835938 178.265625 265.570312 177.871094 C 265.300781 177.472656 265.058594 177.027344 264.835938 176.527344 C 264.617188 176.027344 264.425781 175.488281 264.261719 174.90625 C 264.097656 174.324219 263.964844 173.710938 263.867188 173.070312 C 263.765625 172.425781 263.695312 171.765625 263.664062 171.085938 C 263.628906 170.410156 263.628906 169.726562 263.660156 169.035156 C 263.695312 168.347656 263.761719 167.667969 263.859375 166.996094 C 263.960938 166.324219 264.089844 165.671875 264.253906 165.042969 C 264.417969 164.414062 264.609375 163.816406 264.828125 163.253906 C 265.046875 162.691406 265.289062 162.171875 265.554688 161.695312 C 265.824219 161.21875 266.109375 160.796875 266.414062 160.429688 C 266.71875 160.0625 267.035156 159.753906 267.367188 159.503906 C 267.699219 159.257812 268.035156 159.074219 268.378906 158.953125 C 268.722656 158.835938 269.066406 158.785156 269.414062 158.804688 Z M 269.414062 158.804688 "/></g></g></g><g clip-rule="nonzero" clip-path="url(#1df0d711ed)"><g clip-rule="nonzero" clip-path="url(#e7419c7050)"><g clip-rule="nonzero" clip-path="url(#e4e337eff6)"><path style=" stroke:none;fill-rule:evenodd;fill:#fbdcd9;fill-opacity:1;" d="M 255.929688 184.667969 C 255.132812 184.105469 253.976562 183.652344 253.164062 183.230469 C 252.351562 182.796875 251.871094 182.378906 251.027344 182.296875 C 250.183594 182.214844 248.957031 182.453125 248.144531 183.25 C 247.34375 184.050781 246.949219 185.402344 247.285156 186.875 C 247.605469 188.351562 248.660156 189.960938 249.84375 190.742188 C 251.011719 191.527344 252.320312 191.480469 253.589844 191.152344 C 254.855469 190.824219 256.082031 190.199219 256.75 189.390625 C 257.417969 188.597656 257.515625 187.617188 257.347656 186.78125 C 257.179688 185.941406 256.730469 185.238281 255.929688 184.667969 Z M 255.929688 184.667969 "/></g></g></g><g clip-rule="nonzero" clip-path="url(#59796377a2)"><g clip-rule="nonzero" clip-path="url(#0e52132709)"><g clip-rule="nonzero" clip-path="url(#86110b85e3)"><path style=" stroke:none;fill-rule:evenodd;fill:#fbdcd9;fill-opacity:1;" d="M 251.097656 175.449219 C 251.175781 173.980469 250.859375 172.605469 249.90625 171.640625 C 248.96875 170.6875 247.421875 170.136719 246.027344 170.125 C 244.648438 170.113281 243.4375 170.640625 242.722656 172.136719 C 242.011719 173.648438 241.800781 176.140625 242.445312 177.855469 C 243.078125 179.585938 244.582031 180.554688 245.972656 180.785156 C 247.378906 181.015625 248.691406 180.507812 249.59375 179.484375 C 250.503906 178.453125 251.003906 176.90625 251.097656 175.449219 Z M 251.097656 175.449219 "/></g></g></g><g clip-rule="nonzero" clip-path="url(#f65efe3b56)"><g clip-rule="nonzero" clip-path="url(#4050b5cb7c)"><g clip-rule="nonzero" clip-path="url(#68fa496b68)"><path style=" stroke:none;fill-rule:evenodd;fill:#fbdcd9;fill-opacity:1;" d="M 249.765625 190.460938 C 249.84375 188.992188 249.527344 187.621094 248.574219 186.652344 C 247.636719 185.699219 246.085938 185.148438 244.695312 185.136719 C 243.316406 185.125 242.101562 185.652344 241.390625 187.152344 C 240.679688 188.660156 240.46875 191.152344 241.113281 192.871094 C 241.746094 194.601562 243.246094 195.566406 244.640625 195.796875 C 246.046875 196.027344 247.359375 195.519531 248.257812 194.5 C 249.171875 193.464844 249.671875 191.917969 249.765625 190.460938 Z M 249.765625 190.460938 "/></g></g></g><g clip-rule="nonzero" clip-path="url(#59506147f9)"><g clip-rule="nonzero" clip-path="url(#7c77a8ed5a)"><g clip-rule="nonzero" clip-path="url(#eec2316640)"><path style=" stroke:none;fill-rule:evenodd;fill:#fbdcd9;fill-opacity:1;" d="M 244.609375 184.660156 C 244.359375 183.472656 243.746094 182.605469 242.941406 181.980469 C 242.148438 181.355469 241.148438 180.964844 239.453125 181.21875 C 237.761719 181.488281 235.347656 182.398438 234.023438 183.664062 C 232.695312 184.945312 232.441406 186.566406 232.742188 187.972656 C 233.046875 189.390625 233.898438 190.578125 234.828125 191.226562 C 235.746094 191.859375 236.742188 191.953125 238.382812 191.46875 C 240.023438 190.984375 242.308594 189.921875 243.511719 188.648438 C 244.726562 187.355469 244.84375 185.855469 244.609375 184.660156 Z M 244.609375 184.660156 "/></g></g></g><g clip-rule="nonzero" clip-path="url(#88bd2e23c0)"><g clip-rule="nonzero" clip-path="url(#182bb54b54)"><g clip-rule="nonzero" clip-path="url(#bbb632dfae)"><path style=" stroke:none;fill-rule:evenodd;fill:#fbdcd9;fill-opacity:1;" d="M 243.105469 175.371094 C 242.242188 174.921875 241.035156 174.625 240.175781 174.308594 C 239.3125 173.988281 238.78125 173.632812 237.933594 173.664062 C 237.085938 173.691406 235.902344 174.089844 235.203125 174.984375 C 234.515625 175.886719 234.300781 177.277344 234.824219 178.691406 C 235.335938 180.113281 236.59375 181.570312 237.867188 182.191406 C 239.128906 182.816406 240.417969 182.601562 241.632812 182.105469 C 242.847656 181.613281 243.980469 180.835938 244.535156 179.949219 C 245.097656 179.070312 245.0625 178.085938 244.789062 177.28125 C 244.511719 176.46875 243.976562 175.832031 243.105469 175.371094 Z M 243.105469 175.371094 "/></g></g></g><g clip-rule="nonzero" clip-path="url(#638f13c2ff)"><g clip-rule="nonzero" clip-path="url(#f25669e7fe)"><g clip-rule="nonzero" clip-path="url(#197da10b22)"><path style=" stroke:none;fill-rule:nonzero;fill:#fbdcd9;fill-opacity:1;" d="M 257.386719 178.304688 C 257.550781 178.609375 257.652344 178.941406 257.691406 179.304688 C 257.730469 179.667969 257.710938 180.050781 257.628906 180.453125 C 257.542969 180.859375 257.402344 181.277344 257.199219 181.710938 C 256.996094 182.144531 256.734375 182.585938 256.421875 183.027344 C 256.105469 183.472656 255.738281 183.914062 255.324219 184.351562 C 254.910156 184.792969 254.449219 185.21875 253.949219 185.636719 C 253.449219 186.050781 252.917969 186.449219 252.351562 186.824219 C 251.789062 187.203125 251.203125 187.554688 250.59375 187.878906 C 249.984375 188.203125 249.367188 188.496094 248.738281 188.753906 C 248.109375 189.011719 247.484375 189.234375 246.859375 189.417969 C 246.234375 189.601562 245.625 189.742188 245.027344 189.84375 C 244.433594 189.945312 243.863281 190 243.316406 190.015625 C 242.773438 190.03125 242.265625 190 241.792969 189.929688 C 241.320312 189.855469 240.890625 189.742188 240.507812 189.582031 C 240.125 189.425781 239.796875 189.230469 239.519531 188.996094 C 239.238281 188.761719 239.019531 188.492188 238.859375 188.1875 C 238.695312 187.882812 238.59375 187.550781 238.554688 187.1875 C 238.511719 186.828125 238.535156 186.441406 238.617188 186.039062 C 238.699219 185.632812 238.84375 185.214844 239.046875 184.78125 C 239.25 184.347656 239.507812 183.910156 239.824219 183.464844 C 240.140625 183.019531 240.503906 182.578125 240.921875 182.140625 C 241.335938 181.699219 241.796875 181.273438 242.292969 180.855469 C 242.792969 180.441406 243.328125 180.042969 243.890625 179.667969 C 244.457031 179.289062 245.042969 178.9375 245.652344 178.613281 C 246.261719 178.289062 246.878906 177.996094 247.507812 177.738281 C 248.136719 177.480469 248.761719 177.257812 249.386719 177.074219 C 250.011719 176.890625 250.621094 176.75 251.214844 176.648438 C 251.8125 176.550781 252.382812 176.492188 252.925781 176.476562 C 253.472656 176.460938 253.980469 176.492188 254.453125 176.566406 C 254.925781 176.636719 255.355469 176.753906 255.738281 176.910156 C 256.121094 177.066406 256.449219 177.261719 256.726562 177.496094 C 257.003906 177.730469 257.226562 178 257.386719 178.304688 Z M 257.386719 178.304688 "/></g></g></g><g clip-rule="nonzero" clip-path="url(#99cce46d53)"><path style=" stroke:none;fill-rule:nonzero;fill:#f9afa6;fill-opacity:1;" d="M 268.167969 168.046875 C 267.945312 168.054688 267.621094 168.128906 267.371094 168.230469 C 266.953125 168.402344 266.554688 168.722656 266.289062 169.101562 C 266.171875 169.269531 266.015625 169.53125 265.957031 169.65625 C 265.804688 169.976562 265.6875 170.429688 265.644531 170.875 C 265.605469 171.269531 265.714844 171.800781 265.910156 172.175781 C 266.148438 172.628906 266.355469 172.816406 266.8125 172.996094 C 267.117188 173.117188 267.664062 173.242188 268.027344 173.273438 C 268.214844 173.285156 268.257812 173.285156 268.460938 173.269531 C 268.675781 173.253906 268.851562 173.222656 269.074219 173.152344 C 269.503906 173.023438 269.773438 172.871094 270.066406 172.597656 C 270.246094 172.425781 270.425781 172.175781 270.550781 171.921875 C 270.644531 171.730469 270.769531 171.371094 270.816406 171.144531 C 270.847656 170.992188 270.851562 170.945312 270.851562 170.6875 C 270.855469 170.433594 270.851562 170.378906 270.820312 170.246094 C 270.753906 169.925781 270.632812 169.621094 270.488281 169.402344 C 270.359375 169.214844 270.144531 168.933594 270.046875 168.828125 C 269.8125 168.582031 269.402344 168.320312 269.101562 168.222656 C 268.9375 168.167969 268.402344 168.058594 268.253906 168.050781 C 268.226562 168.046875 268.199219 168.046875 268.167969 168.046875 Z M 268.167969 168.046875 "/></g><g clip-rule="nonzero" clip-path="url(#dd04be445c)"><path style=" stroke:none;fill-rule:nonzero;fill:#f9afa6;fill-opacity:1;" d="M 245.65625 180.820312 C 245.4375 180.828125 245.113281 180.898438 244.859375 181.003906 C 244.445312 181.171875 244.042969 181.492188 243.777344 181.871094 C 243.660156 182.039062 243.503906 182.304688 243.445312 182.425781 C 243.292969 182.746094 243.179688 183.203125 243.132812 183.644531 C 243.09375 184.042969 243.203125 184.570312 243.398438 184.945312 C 243.640625 185.398438 243.847656 185.585938 244.304688 185.769531 C 244.609375 185.890625 245.152344 186.011719 245.515625 186.042969 C 245.703125 186.058594 245.746094 186.058594 245.949219 186.042969 C 246.164062 186.027344 246.339844 185.992188 246.5625 185.925781 C 246.992188 185.796875 247.265625 185.644531 247.554688 185.367188 C 247.734375 185.199219 247.914062 184.949219 248.039062 184.691406 C 248.136719 184.5 248.257812 184.140625 248.304688 183.917969 C 248.339844 183.761719 248.34375 183.714844 248.34375 183.457031 C 248.34375 183.203125 248.339844 183.148438 248.3125 183.015625 C 248.242188 182.699219 248.121094 182.390625 247.976562 182.171875 C 247.851562 181.984375 247.632812 181.703125 247.535156 181.601562 C 247.300781 181.355469 246.894531 181.089844 246.589844 180.992188 C 246.425781 180.9375 245.890625 180.828125 245.742188 180.820312 C 245.71875 180.820312 245.6875 180.816406 245.65625 180.820312 Z M 245.65625 180.820312 "/></g><g clip-rule="nonzero" clip-path="url(#11ace2273e)"><g clip-rule="nonzero" clip-path="url(#00951e21fe)"><g clip-rule="nonzero" clip-path="url(#07d168fdad)"><path style=" stroke:none;fill-rule:nonzero;fill:#517564;fill-opacity:1;" d="M 216.441406 213.433594 C 216.15625 213.507812 215.816406 213.367188 215.597656 213.117188 C 202.125 191.902344 209.699219 171.046875 209.785156 170.796875 C 209.925781 170.457031 210.335938 170.273438 210.75 170.394531 C 211.160156 170.519531 211.34375 170.929688 211.148438 171.359375 C 211.113281 171.519531 203.75 191.710938 216.917969 212.320312 C 217.152344 212.640625 217.050781 213.125 216.730469 213.359375 C 216.65625 213.378906 216.585938 213.394531 216.441406 213.433594 Z M 216.441406 213.433594 "/></g></g></g><g clip-rule="nonzero" clip-path="url(#c10a71ac92)"><path style=" stroke:none;fill-rule:nonzero;fill:#517564;fill-opacity:1;" d="M 192.089844 212.742188 C 192.417969 212.742188 192.746094 212.496094 192.910156 212.167969 C 201.523438 185.589844 187.578125 165.246094 187.414062 165 C 187.167969 164.671875 186.675781 164.589844 186.265625 164.835938 C 185.855469 165.082031 185.773438 165.574219 186.101562 165.984375 C 186.183594 166.148438 199.71875 185.835938 191.269531 211.675781 C 191.105469 212.085938 191.351562 212.578125 191.761719 212.742188 C 191.84375 212.742188 191.925781 212.742188 192.089844 212.742188 Z M 192.089844 212.742188 "/></g><g clip-rule="nonzero" clip-path="url(#dc1b3b8df6)"><g clip-rule="nonzero" clip-path="url(#84d7eb7dce)"><g clip-rule="nonzero" clip-path="url(#7755c61a89)"><path style=" stroke:none;fill-rule:evenodd;fill:#fbdcd9;fill-opacity:1;" d="M 194.246094 149.71875 C 193.121094 150.03125 191.820312 150.761719 190.816406 151.1875 C 189.796875 151.613281 189.042969 151.742188 188.324219 152.460938 C 187.609375 153.179688 186.898438 154.492188 187.019531 155.851562 C 187.15625 157.199219 188.109375 158.589844 189.722656 159.402344 C 191.335938 160.222656 193.625 160.46875 195.246094 159.96875 C 196.863281 159.480469 197.8125 158.234375 198.472656 156.808594 C 199.128906 155.386719 199.480469 153.773438 199.242188 152.546875 C 199.011719 151.324219 198.175781 150.488281 197.28125 150.011719 C 196.371094 149.527344 195.382812 149.410156 194.246094 149.71875 Z M 194.246094 149.71875 "/></g></g></g><g clip-rule="nonzero" clip-path="url(#cca65e7b56)"><g clip-rule="nonzero" clip-path="url(#1b78123a5f)"><g clip-rule="nonzero" clip-path="url(#7483877eaf)"><path style=" stroke:none;fill-rule:evenodd;fill:#fbdcd9;fill-opacity:1;" d="M 180.515625 150.589844 C 179.105469 149.644531 177.558594 149.144531 176.039062 149.515625 C 174.539062 149.882812 173.078125 151.089844 172.242188 152.464844 C 171.414062 153.824219 171.222656 155.335938 172.28125 156.925781 C 173.355469 158.523438 175.699219 160.207031 177.78125 160.585938 C 179.871094 160.980469 181.71875 160.066406 182.773438 158.824219 C 183.832031 157.566406 184.101562 155.964844 183.625 154.46875 C 183.140625 152.953125 181.90625 151.542969 180.515625 150.589844 Z M 180.515625 150.589844 "/></g></g></g><g clip-rule="nonzero" clip-path="url(#1e68247bb1)"><g clip-rule="nonzero" clip-path="url(#922bd1c454)"><g clip-rule="nonzero" clip-path="url(#4d5dd006b2)"><path style=" stroke:none;fill-rule:evenodd;fill:#fbdcd9;fill-opacity:1;" d="M 195.796875 159.722656 C 194.390625 158.773438 192.84375 158.277344 191.324219 158.648438 C 189.820312 159.015625 188.359375 160.222656 187.527344 161.59375 C 186.699219 162.957031 186.503906 164.46875 187.566406 166.058594 C 188.640625 167.65625 190.984375 169.339844 193.066406 169.714844 C 195.15625 170.113281 197.003906 169.199219 198.054688 167.953125 C 199.113281 166.699219 199.386719 165.097656 198.90625 163.601562 C 198.421875 162.085938 197.1875 160.675781 195.796875 159.722656 Z M 195.796875 159.722656 "/></g></g></g><g clip-rule="nonzero" clip-path="url(#6eaecff9eb)"><path style=" stroke:none;fill-rule:evenodd;fill:#fbdcd9;fill-opacity:1;" d="M 184.871094 158.957031 C 183.472656 158.648438 182.246094 158.886719 181.1875 159.449219 C 180.132812 159.996094 179.226562 160.882812 178.683594 162.824219 C 178.15625 164.769531 177.96875 167.800781 178.683594 169.832031 C 179.414062 171.875 181.035156 172.933594 182.6875 173.292969 C 184.359375 173.648438 186.046875 173.308594 187.1875 172.625 C 188.3125 171.945312 188.894531 170.921875 189.164062 168.925781 C 189.4375 166.933594 189.40625 163.96875 188.621094 162.058594 C 187.820312 160.132812 186.269531 159.28125 184.871094 158.957031 Z M 184.871094 158.957031 "/></g><g clip-rule="nonzero" clip-path="url(#004ea8246f)"><path style=" stroke:none;fill-rule:evenodd;fill:#fbdcd9;fill-opacity:1;" d="M 177.035156 157.753906 C 176.042969 158.363281 174.996094 159.425781 174.144531 160.113281 C 173.285156 160.804688 172.59375 161.132812 172.105469 162.023438 C 171.613281 162.910156 171.296875 164.371094 171.785156 165.644531 C 172.289062 166.902344 173.589844 167.976562 175.367188 168.308594 C 177.144531 168.652344 179.410156 168.253906 180.828125 167.328125 C 182.246094 166.410156 182.816406 164.953125 183.054688 163.402344 C 183.296875 161.851562 183.1875 160.207031 182.617188 159.09375 C 182.0625 157.980469 181.027344 157.410156 180.035156 157.195312 C 179.027344 156.984375 178.042969 157.144531 177.035156 157.753906 Z M 177.035156 157.753906 "/></g><g clip-rule="nonzero" clip-path="url(#fff9d60854)"><g clip-rule="nonzero" clip-path="url(#e171bf2048)"><g clip-rule="nonzero" clip-path="url(#d9630048b8)"><path style=" stroke:none;fill-rule:nonzero;fill:#fbdcd9;fill-opacity:1;" d="M 185.488281 144.367188 C 185.902344 144.390625 186.308594 144.488281 186.707031 144.671875 C 187.105469 144.851562 187.488281 145.109375 187.855469 145.445312 C 188.222656 145.78125 188.566406 146.1875 188.886719 146.664062 C 189.210938 147.140625 189.503906 147.675781 189.769531 148.277344 C 190.03125 148.875 190.261719 149.527344 190.457031 150.226562 C 190.65625 150.925781 190.816406 151.660156 190.9375 152.433594 C 191.058594 153.207031 191.136719 154 191.179688 154.816406 C 191.222656 155.632812 191.222656 156.453125 191.183594 157.28125 C 191.140625 158.109375 191.0625 158.925781 190.941406 159.734375 C 190.820312 160.542969 190.664062 161.324219 190.46875 162.082031 C 190.273438 162.839844 190.042969 163.554688 189.78125 164.234375 C 189.515625 164.910156 189.226562 165.535156 188.902344 166.105469 C 188.582031 166.675781 188.238281 167.183594 187.871094 167.625 C 187.507812 168.070312 187.125 168.441406 186.726562 168.738281 C 186.328125 169.035156 185.921875 169.257812 185.507812 169.398438 C 185.097656 169.539062 184.683594 169.601562 184.269531 169.582031 C 183.855469 169.5625 183.449219 169.460938 183.050781 169.28125 C 182.652344 169.097656 182.269531 168.839844 181.902344 168.503906 C 181.535156 168.167969 181.191406 167.765625 180.871094 167.289062 C 180.546875 166.8125 180.253906 166.273438 179.988281 165.671875 C 179.726562 165.074219 179.496094 164.425781 179.296875 163.726562 C 179.101562 163.027344 178.941406 162.289062 178.820312 161.515625 C 178.699219 160.746094 178.617188 159.949219 178.578125 159.136719 C 178.535156 158.320312 178.535156 157.496094 178.574219 156.667969 C 178.617188 155.84375 178.695312 155.023438 178.816406 154.214844 C 178.9375 153.410156 179.09375 152.625 179.289062 151.867188 C 179.484375 151.113281 179.714844 150.394531 179.976562 149.71875 C 180.242188 149.039062 180.53125 148.417969 180.855469 147.84375 C 181.175781 147.273438 181.519531 146.765625 181.882812 146.324219 C 182.25 145.878906 182.632812 145.511719 183.03125 145.210938 C 183.429688 144.914062 183.835938 144.691406 184.25 144.550781 C 184.660156 144.410156 185.074219 144.347656 185.488281 144.367188 Z M 185.488281 144.367188 "/></g></g></g><g clip-rule="nonzero" clip-path="url(#ac463f5cbc)"><g clip-rule="nonzero" clip-path="url(#c009b3c452)"><g clip-rule="nonzero" clip-path="url(#c2c7a26493)"><path style=" stroke:none;fill-rule:evenodd;fill:#fbdcd9;fill-opacity:1;" d="M 227.277344 175.34375 C 226.324219 174.671875 224.933594 174.128906 223.964844 173.621094 C 222.992188 173.105469 222.414062 172.601562 221.402344 172.503906 C 220.394531 172.402344 218.925781 172.6875 217.953125 173.644531 C 216.996094 174.605469 216.523438 176.222656 216.921875 177.984375 C 217.308594 179.753906 218.570312 181.679688 219.984375 182.613281 C 221.386719 183.554688 222.953125 183.5 224.472656 183.105469 C 225.988281 182.710938 227.457031 181.964844 228.253906 181 C 229.058594 180.046875 229.171875 178.871094 228.972656 177.875 C 228.769531 176.863281 228.234375 176.027344 227.277344 175.34375 Z M 227.277344 175.34375 "/></g></g></g><g clip-rule="nonzero" clip-path="url(#28d08ba499)"><g clip-rule="nonzero" clip-path="url(#bf179abf6f)"><g clip-rule="nonzero" clip-path="url(#cf3ed22f2c)"><path style=" stroke:none;fill-rule:evenodd;fill:#fbdcd9;fill-opacity:1;" d="M 221.550781 164.234375 C 221.644531 162.539062 221.277344 160.957031 220.179688 159.84375 C 219.09375 158.742188 217.308594 158.105469 215.703125 158.09375 C 214.109375 158.078125 212.710938 158.6875 211.890625 160.414062 C 211.070312 162.15625 210.828125 165.03125 211.570312 167.011719 C 212.300781 169.011719 214.03125 170.128906 215.640625 170.394531 C 217.261719 170.65625 218.773438 170.070312 219.8125 168.894531 C 220.867188 167.699219 221.445312 165.917969 221.550781 164.234375 Z M 221.550781 164.234375 "/></g></g></g><g clip-rule="nonzero" clip-path="url(#e9a46897b6)"><g clip-rule="nonzero" clip-path="url(#64f5001457)"><g clip-rule="nonzero" clip-path="url(#12862b2f4c)"><path style=" stroke:none;fill-rule:evenodd;fill:#fbdcd9;fill-opacity:1;" d="M 219.976562 181.941406 C 220.070312 180.246094 219.703125 178.664062 218.605469 177.550781 C 217.523438 176.449219 215.734375 175.8125 214.128906 175.800781 C 212.539062 175.789062 211.140625 176.398438 210.316406 178.125 C 209.496094 179.867188 209.253906 182.738281 209.996094 184.722656 C 210.726562 186.71875 212.460938 187.835938 214.066406 188.101562 C 215.6875 188.367188 217.203125 187.777344 218.242188 186.601562 C 219.292969 185.410156 219.871094 183.625 219.976562 181.941406 Z M 219.976562 181.941406 "/></g></g></g><g clip-rule="nonzero" clip-path="url(#206e64984e)"><g clip-rule="nonzero" clip-path="url(#84e6494913)"><g clip-rule="nonzero" clip-path="url(#2ab5ce5f8b)"><path style=" stroke:none;fill-rule:evenodd;fill:#fbdcd9;fill-opacity:1;" d="M 213.890625 175.234375 C 213.597656 173.832031 212.875 172.8125 211.929688 172.078125 C 210.996094 171.339844 209.816406 170.878906 207.820312 171.179688 C 205.832031 171.496094 202.988281 172.570312 201.433594 174.058594 C 199.871094 175.566406 199.570312 177.476562 199.921875 179.128906 C 200.28125 180.800781 201.285156 182.199219 202.378906 182.960938 C 203.460938 183.707031 204.632812 183.816406 206.5625 183.246094 C 208.492188 182.675781 211.183594 181.425781 212.601562 179.925781 C 214.027344 178.40625 214.167969 176.640625 213.890625 175.234375 Z M 213.890625 175.234375 "/></g></g></g><g clip-rule="nonzero" clip-path="url(#14a938df0e)"><g clip-rule="nonzero" clip-path="url(#c60226866d)"><g clip-rule="nonzero" clip-path="url(#6d880a6d39)"><path style=" stroke:none;fill-rule:evenodd;fill:#fbdcd9;fill-opacity:1;" d="M 212.160156 164.375 C 211.125 163.832031 209.679688 163.476562 208.652344 163.101562 C 207.617188 162.714844 206.980469 162.292969 205.964844 162.328125 C 204.949219 162.363281 203.535156 162.835938 202.695312 163.910156 C 201.871094 164.988281 201.613281 166.65625 202.242188 168.351562 C 202.855469 170.054688 204.359375 171.796875 205.882812 172.539062 C 207.398438 173.285156 208.941406 173.027344 210.394531 172.4375 C 211.851562 171.847656 213.207031 170.914062 213.871094 169.851562 C 214.542969 168.804688 214.5 167.625 214.175781 166.660156 C 213.839844 165.6875 213.199219 164.925781 212.160156 164.375 Z M 212.160156 164.375 "/></g></g></g><g clip-rule="nonzero" clip-path="url(#24c00dd705)"><g clip-rule="nonzero" clip-path="url(#c9cee516fc)"><g clip-rule="nonzero" clip-path="url(#aa65aea6fc)"><path style=" stroke:none;fill-rule:nonzero;fill:#fbdcd9;fill-opacity:1;" d="M 229.441406 167.636719 C 229.636719 168.003906 229.757812 168.402344 229.804688 168.835938 C 229.855469 169.273438 229.828125 169.734375 229.726562 170.21875 C 229.628906 170.707031 229.457031 171.210938 229.210938 171.730469 C 228.96875 172.25 228.65625 172.777344 228.277344 173.3125 C 227.898438 173.847656 227.460938 174.378906 226.960938 174.90625 C 226.460938 175.433594 225.910156 175.945312 225.308594 176.445312 C 224.707031 176.945312 224.066406 177.425781 223.386719 177.878906 C 222.707031 178.332031 222.003906 178.753906 221.273438 179.144531 C 220.542969 179.535156 219.796875 179.882812 219.042969 180.195312 C 218.289062 180.507812 217.535156 180.773438 216.785156 180.992188 C 216.035156 181.210938 215.300781 181.382812 214.585938 181.503906 C 213.867188 181.625 213.183594 181.695312 212.527344 181.710938 C 211.875 181.730469 211.261719 181.695312 210.691406 181.605469 C 210.125 181.519531 209.609375 181.382812 209.152344 181.191406 C 208.691406 181.003906 208.292969 180.769531 207.960938 180.484375 C 207.625 180.203125 207.363281 179.878906 207.167969 179.511719 C 206.972656 179.148438 206.851562 178.746094 206.800781 178.3125 C 206.753906 177.878906 206.777344 177.417969 206.878906 176.929688 C 206.976562 176.445312 207.148438 175.941406 207.394531 175.417969 C 207.636719 174.898438 207.949219 174.371094 208.328125 173.835938 C 208.707031 173.300781 209.148438 172.773438 209.648438 172.246094 C 210.148438 171.71875 210.695312 171.203125 211.296875 170.703125 C 211.898438 170.203125 212.539062 169.726562 213.21875 169.273438 C 213.898438 168.820312 214.601562 168.398438 215.335938 168.007812 C 216.066406 167.617188 216.808594 167.265625 217.5625 166.957031 C 218.320312 166.644531 219.070312 166.378906 219.820312 166.15625 C 220.570312 165.9375 221.304688 165.765625 222.023438 165.644531 C 222.738281 165.523438 223.421875 165.457031 224.078125 165.4375 C 224.734375 165.421875 225.34375 165.457031 225.914062 165.542969 C 226.480469 165.632812 226.996094 165.769531 227.457031 165.957031 C 227.914062 166.144531 228.3125 166.382812 228.648438 166.664062 C 228.980469 166.945312 229.246094 167.269531 229.441406 167.636719 Z M 229.441406 167.636719 "/></g></g></g><g clip-rule="nonzero" clip-path="url(#7760ebe357)"><path style=" stroke:none;fill-rule:nonzero;fill:#f9afa6;fill-opacity:1;" d="M 184.089844 155.738281 C 183.8125 155.75 183.402344 155.839844 183.082031 155.972656 C 182.558594 156.183594 182.054688 156.589844 181.71875 157.066406 C 181.574219 157.277344 181.371094 157.609375 181.300781 157.765625 C 181.109375 158.171875 180.964844 158.742188 180.90625 159.300781 C 180.855469 159.804688 180.992188 160.472656 181.242188 160.945312 C 181.542969 161.515625 181.804688 161.753906 182.382812 161.980469 C 182.765625 162.132812 183.453125 162.289062 183.914062 162.328125 C 184.148438 162.347656 184.203125 162.347656 184.457031 162.328125 C 184.730469 162.304688 184.949219 162.265625 185.234375 162.179688 C 185.773438 162.015625 186.117188 161.824219 186.484375 161.476562 C 186.710938 161.261719 186.9375 160.945312 187.097656 160.625 C 187.214844 160.382812 187.371094 159.925781 187.429688 159.644531 C 187.472656 159.453125 187.476562 159.390625 187.476562 159.066406 C 187.476562 158.746094 187.472656 158.679688 187.4375 158.511719 C 187.351562 158.109375 187.199219 157.722656 187.015625 157.449219 C 186.855469 157.210938 186.582031 156.855469 186.457031 156.722656 C 186.164062 156.414062 185.648438 156.082031 185.265625 155.957031 C 185.058594 155.890625 184.382812 155.753906 184.199219 155.742188 C 184.164062 155.738281 184.128906 155.738281 184.089844 155.738281 Z M 184.089844 155.738281 "/></g><g clip-rule="nonzero" clip-path="url(#5430910892)"><path style=" stroke:none;fill-rule:nonzero;fill:#f9afa6;fill-opacity:1;" d="M 215.339844 170.71875 C 215.0625 170.730469 214.652344 170.820312 214.332031 170.949219 C 213.808594 171.164062 213.304688 171.570312 212.972656 172.046875 C 212.824219 172.257812 212.625 172.589844 212.550781 172.746094 C 212.359375 173.148438 212.214844 173.722656 212.15625 174.28125 C 212.109375 174.785156 212.246094 175.449219 212.492188 175.921875 C 212.796875 176.496094 213.054688 176.734375 213.632812 176.960938 C 214.015625 177.113281 214.703125 177.269531 215.164062 177.308594 C 215.398438 177.328125 215.453125 177.328125 215.710938 177.308594 C 215.980469 177.285156 216.203125 177.246094 216.484375 177.160156 C 217.023438 176.996094 217.367188 176.804688 217.734375 176.457031 C 217.964844 176.242188 218.191406 175.925781 218.347656 175.605469 C 218.464844 175.363281 218.621094 174.90625 218.679688 174.625 C 218.722656 174.433594 218.726562 174.371094 218.726562 174.046875 C 218.730469 173.726562 218.722656 173.660156 218.6875 173.492188 C 218.601562 173.089844 218.449219 172.699219 218.265625 172.429688 C 218.105469 172.191406 217.832031 171.835938 217.710938 171.703125 C 217.414062 171.394531 216.898438 171.0625 216.519531 170.9375 C 216.3125 170.871094 215.632812 170.734375 215.449219 170.71875 C 215.417969 170.71875 215.378906 170.71875 215.339844 170.71875 Z M 215.339844 170.71875 "/></g><g style="fill:#f9afa6;fill-opacity:1;"><g transform="translate(159.664476, 230.798392)"><path style="stroke:none" d="M 5.734375 0.15625 C 4.023438 0.15625 2.773438 -0.316406 1.984375 -1.265625 C 1.191406 -2.222656 0.796875 -3.648438 0.796875 -5.546875 C 0.796875 -9.347656 2.363281 -11.25 5.5 -11.25 C 6.582031 -11.25 7.445312 -11.03125 8.09375 -10.59375 C 8.75 -10.164062 9.160156 -9.53125 9.328125 -8.6875 C 9.410156 -8.25 9.316406 -7.910156 9.046875 -7.671875 C 8.785156 -7.429688 8.4375 -7.3125 8 -7.3125 L 7.8125 -7.3125 C 7.53125 -7.3125 7.316406 -7.359375 7.171875 -7.453125 C 7.023438 -7.546875 6.910156 -7.6875 6.828125 -7.875 C 6.742188 -8.070312 6.648438 -8.304688 6.546875 -8.578125 C 6.410156 -8.921875 6.066406 -9.09375 5.515625 -9.09375 C 5.066406 -9.09375 4.710938 -8.976562 4.453125 -8.75 C 4.191406 -8.519531 4.003906 -8.144531 3.890625 -7.625 C 3.785156 -7.113281 3.734375 -6.421875 3.734375 -5.546875 C 3.734375 -4.609375 3.816406 -3.890625 3.984375 -3.390625 C 4.160156 -2.890625 4.394531 -2.546875 4.6875 -2.359375 C 4.988281 -2.171875 5.304688 -2.078125 5.640625 -2.078125 C 6.015625 -2.078125 6.335938 -2.132812 6.609375 -2.25 C 6.878906 -2.375 7.015625 -2.535156 7.015625 -2.734375 L 7.015625 -3.96875 L 6.75 -3.96875 C 5.84375 -3.96875 5.390625 -4.304688 5.390625 -4.984375 C 5.390625 -5.671875 5.84375 -6.015625 6.75 -6.015625 L 8.203125 -6.015625 C 9.109375 -6.015625 9.5625 -5.5625 9.5625 -4.65625 L 9.5625 -2.484375 C 9.5625 -2.148438 9.535156 -1.875 9.484375 -1.65625 C 9.441406 -1.4375 9.347656 -1.25 9.203125 -1.09375 C 8.867188 -0.738281 8.429688 -0.441406 7.890625 -0.203125 C 7.359375 0.0351562 6.640625 0.15625 5.734375 0.15625 Z M 5.734375 0.15625 "/></g></g><g style="fill:#f9afa6;fill-opacity:1;"><g transform="translate(173.22997, 230.798392)"><path style="stroke:none" d="M 2.5625 0 C 1.65625 0 1.203125 -0.453125 1.203125 -1.359375 C 1.210938 -2.054688 1.21875 -2.753906 1.21875 -3.453125 C 1.226562 -4.148438 1.234375 -4.847656 1.234375 -5.546875 C 1.234375 -6.242188 1.226562 -6.941406 1.21875 -7.640625 C 1.21875 -8.335938 1.210938 -9.035156 1.203125 -9.734375 C 1.203125 -10.640625 1.65625 -11.09375 2.5625 -11.09375 L 5.3125 -11.09375 C 6.9375 -11.09375 8.113281 -10.828125 8.84375 -10.296875 C 9.582031 -9.773438 9.953125 -8.929688 9.953125 -7.765625 C 9.953125 -7.046875 9.753906 -6.429688 9.359375 -5.921875 C 8.972656 -5.410156 8.441406 -5.066406 7.765625 -4.890625 L 7.765625 -4.828125 C 8.296875 -4.671875 8.726562 -4.332031 9.0625 -3.8125 C 9.40625 -3.289062 9.691406 -2.53125 9.921875 -1.53125 C 10.023438 -1.050781 9.960938 -0.675781 9.734375 -0.40625 C 9.503906 -0.132812 9.15625 0 8.6875 0 L 8.171875 0 C 7.335938 0 6.859375 -0.429688 6.734375 -1.296875 C 6.660156 -1.804688 6.550781 -2.265625 6.40625 -2.671875 C 6.269531 -3.078125 6.070312 -3.398438 5.8125 -3.640625 C 5.5625 -3.878906 5.21875 -4 4.78125 -4 L 4.1875 -4 C 4.1875 -3.5625 4.1875 -3.117188 4.1875 -2.671875 C 4.1875 -2.234375 4.191406 -1.796875 4.203125 -1.359375 C 4.203125 -0.453125 3.75 0 2.84375 0 Z M 4.1875 -5.765625 L 4.734375 -5.765625 C 5.492188 -5.765625 6.035156 -5.894531 6.359375 -6.15625 C 6.691406 -6.425781 6.859375 -6.863281 6.859375 -7.46875 C 6.859375 -7.96875 6.707031 -8.328125 6.40625 -8.546875 C 6.113281 -8.765625 5.632812 -8.875 4.96875 -8.875 L 4.203125 -8.875 C 4.191406 -8.476562 4.1875 -8.046875 4.1875 -7.578125 C 4.1875 -7.117188 4.1875 -6.515625 4.1875 -5.765625 Z M 4.1875 -5.765625 "/></g></g><g style="fill:#f9afa6;fill-opacity:1;"><g transform="translate(187.339333, 230.798392)"><path style="stroke:none" d="M 5.5 0.15625 C 2.363281 0.15625 0.796875 -1.742188 0.796875 -5.546875 C 0.796875 -9.347656 2.363281 -11.25 5.5 -11.25 C 8.625 -11.25 10.1875 -9.347656 10.1875 -5.546875 C 10.1875 -1.742188 8.625 0.15625 5.5 0.15625 Z M 5.5 -2 C 5.925781 -2 6.253906 -2.101562 6.484375 -2.3125 C 6.722656 -2.53125 6.890625 -2.894531 6.984375 -3.40625 C 7.085938 -3.925781 7.140625 -4.640625 7.140625 -5.546875 C 7.140625 -6.453125 7.085938 -7.160156 6.984375 -7.671875 C 6.890625 -8.191406 6.722656 -8.554688 6.484375 -8.765625 C 6.253906 -8.984375 5.925781 -9.09375 5.5 -9.09375 C 5.082031 -9.09375 4.753906 -8.984375 4.515625 -8.765625 C 4.273438 -8.554688 4.101562 -8.191406 4 -7.671875 C 3.90625 -7.160156 3.859375 -6.453125 3.859375 -5.546875 C 3.859375 -4.640625 3.90625 -3.925781 4 -3.40625 C 4.101562 -2.894531 4.273438 -2.53125 4.515625 -2.3125 C 4.753906 -2.101562 5.082031 -2 5.5 -2 Z M 5.5 -2 "/></g></g><g style="fill:#f9afa6;fill-opacity:1;"><g transform="translate(201.544677, 230.798392)"><path style="stroke:none" d="M 5.40625 0.15625 C 2.550781 0.15625 1.125 -1.160156 1.125 -3.796875 C 1.125 -4.578125 1.125 -5.363281 1.125 -6.15625 C 1.132812 -6.957031 1.140625 -7.75 1.140625 -8.53125 C 1.140625 -8.726562 1.140625 -8.925781 1.140625 -9.125 C 1.140625 -9.320312 1.140625 -9.523438 1.140625 -9.734375 C 1.140625 -10.640625 1.585938 -11.09375 2.484375 -11.09375 L 2.765625 -11.09375 C 3.203125 -11.09375 3.535156 -10.972656 3.765625 -10.734375 C 4.003906 -10.503906 4.117188 -10.171875 4.109375 -9.734375 C 4.109375 -9.335938 4.109375 -8.945312 4.109375 -8.5625 C 4.109375 -8.175781 4.109375 -7.785156 4.109375 -7.390625 C 4.109375 -6.804688 4.109375 -6.222656 4.109375 -5.640625 C 4.109375 -5.054688 4.113281 -4.472656 4.125 -3.890625 C 4.132812 -3.191406 4.234375 -2.703125 4.421875 -2.421875 C 4.617188 -2.140625 4.945312 -2 5.40625 -2 C 5.9375 -2 6.304688 -2.140625 6.515625 -2.421875 C 6.722656 -2.703125 6.828125 -3.191406 6.828125 -3.890625 C 6.835938 -4.472656 6.84375 -5.054688 6.84375 -5.640625 C 6.851562 -6.222656 6.859375 -6.804688 6.859375 -7.390625 C 6.859375 -7.773438 6.859375 -8.160156 6.859375 -8.546875 C 6.859375 -8.941406 6.851562 -9.332031 6.84375 -9.71875 C 6.832031 -10.164062 6.945312 -10.503906 7.1875 -10.734375 C 7.425781 -10.972656 7.765625 -11.09375 8.203125 -11.09375 L 8.21875 -11.09375 C 8.65625 -11.09375 8.988281 -10.972656 9.21875 -10.734375 C 9.457031 -10.503906 9.570312 -10.171875 9.5625 -9.734375 C 9.5625 -9.335938 9.5625 -8.945312 9.5625 -8.5625 C 9.5625 -8.175781 9.5625 -7.785156 9.5625 -7.390625 C 9.5625 -6.796875 9.5625 -6.195312 9.5625 -5.59375 C 9.570312 -4.988281 9.578125 -4.390625 9.578125 -3.796875 C 9.578125 -1.160156 8.1875 0.15625 5.40625 0.15625 Z M 5.40625 0.15625 "/></g></g><g style="fill:#f9afa6;fill-opacity:1;"><g transform="translate(215.446089, 230.798392)"><path style="stroke:none" d="M 2.5625 0 C 1.65625 0 1.203125 -0.453125 1.203125 -1.359375 C 1.210938 -2.054688 1.21875 -2.753906 1.21875 -3.453125 C 1.226562 -4.148438 1.234375 -4.847656 1.234375 -5.546875 C 1.234375 -6.242188 1.226562 -6.941406 1.21875 -7.640625 C 1.21875 -8.335938 1.210938 -9.035156 1.203125 -9.734375 C 1.203125 -10.640625 1.65625 -11.09375 2.5625 -11.09375 L 5.3125 -11.09375 C 6.9375 -11.09375 8.113281 -10.816406 8.84375 -10.265625 C 9.582031 -9.710938 9.953125 -8.820312 9.953125 -7.59375 C 9.953125 -6.71875 9.738281 -5.960938 9.3125 -5.328125 C 8.894531 -4.691406 8.300781 -4.195312 7.53125 -3.84375 C 6.769531 -3.5 5.851562 -3.328125 4.78125 -3.328125 L 4.1875 -3.328125 C 4.1875 -2.992188 4.1875 -2.664062 4.1875 -2.34375 C 4.1875 -2.019531 4.191406 -1.691406 4.203125 -1.359375 C 4.203125 -0.453125 3.75 0 2.84375 0 Z M 4.1875 -5.59375 L 4.734375 -5.59375 C 5.492188 -5.59375 6.035156 -5.738281 6.359375 -6.03125 C 6.691406 -6.332031 6.859375 -6.8125 6.859375 -7.46875 C 6.859375 -7.96875 6.707031 -8.328125 6.40625 -8.546875 C 6.113281 -8.765625 5.632812 -8.875 4.96875 -8.875 L 4.203125 -8.875 C 4.191406 -8.445312 4.1875 -7.988281 4.1875 -7.5 C 4.1875 -7.019531 4.1875 -6.382812 4.1875 -5.59375 Z M 4.1875 -5.59375 "/></g></g><g style="fill:#f9afa6;fill-opacity:1;"><g transform="translate(229.235532, 230.798392)"><path style="stroke:none" d=""/></g></g><g style="fill:#f9afa6;fill-opacity:1;"><g transform="translate(236.434552, 230.798392)"><path style="stroke:none" d="M 9.921875 -5.546875 C 9.910156 -4.859375 9.90625 -4.164062 9.90625 -3.46875 C 9.914062 -2.769531 9.921875 -2.066406 9.921875 -1.359375 C 9.929688 -0.921875 9.816406 -0.582031 9.578125 -0.34375 C 9.347656 -0.113281 9.015625 0 8.578125 0 L 8.265625 0 C 7.828125 0 7.488281 -0.113281 7.25 -0.34375 C 7.019531 -0.582031 6.910156 -0.921875 6.921875 -1.359375 C 6.929688 -1.859375 6.9375 -2.359375 6.9375 -2.859375 C 6.9375 -3.359375 6.9375 -3.859375 6.9375 -4.359375 L 4.1875 -4.359375 C 4.1875 -3.859375 4.1875 -3.359375 4.1875 -2.859375 C 4.1875 -2.359375 4.1875 -1.859375 4.1875 -1.359375 C 4.195312 -0.921875 4.082031 -0.582031 3.84375 -0.34375 C 3.613281 -0.113281 3.28125 0 2.84375 0 L 2.5625 0 C 2.125 0 1.785156 -0.113281 1.546875 -0.34375 C 1.316406 -0.582031 1.207031 -0.921875 1.21875 -1.359375 C 1.21875 -2.066406 1.21875 -2.769531 1.21875 -3.46875 C 1.226562 -4.164062 1.234375 -4.859375 1.234375 -5.546875 C 1.234375 -6.242188 1.226562 -6.941406 1.21875 -7.640625 C 1.21875 -8.335938 1.21875 -9.035156 1.21875 -9.734375 C 1.207031 -10.171875 1.316406 -10.503906 1.546875 -10.734375 C 1.785156 -10.972656 2.125 -11.09375 2.5625 -11.09375 L 2.84375 -11.09375 C 3.28125 -11.09375 3.613281 -10.972656 3.84375 -10.734375 C 4.082031 -10.503906 4.195312 -10.171875 4.1875 -9.734375 C 4.1875 -9.203125 4.1875 -8.671875 4.1875 -8.140625 C 4.1875 -7.617188 4.1875 -7.09375 4.1875 -6.5625 L 6.9375 -6.5625 C 6.9375 -7.09375 6.9375 -7.617188 6.9375 -8.140625 C 6.9375 -8.671875 6.929688 -9.203125 6.921875 -9.734375 C 6.910156 -10.171875 7.019531 -10.503906 7.25 -10.734375 C 7.488281 -10.972656 7.828125 -11.09375 8.265625 -11.09375 L 8.578125 -11.09375 C 9.015625 -11.09375 9.347656 -10.972656 9.578125 -10.734375 C 9.816406 -10.503906 9.929688 -10.171875 9.921875 -9.734375 C 9.921875 -9.035156 9.921875 -8.335938 9.921875 -7.640625 C 9.921875 -6.941406 9.921875 -6.242188 9.921875 -5.546875 Z M 9.921875 -5.546875 "/></g></g><g style="fill:#f9afa6;fill-opacity:1;"><g transform="translate(250.767864, 230.798392)"><path style="stroke:none" d="M 5.5 0.15625 C 2.363281 0.15625 0.796875 -1.742188 0.796875 -5.546875 C 0.796875 -9.347656 2.363281 -11.25 5.5 -11.25 C 8.625 -11.25 10.1875 -9.347656 10.1875 -5.546875 C 10.1875 -1.742188 8.625 0.15625 5.5 0.15625 Z M 5.5 -2 C 5.925781 -2 6.253906 -2.101562 6.484375 -2.3125 C 6.722656 -2.53125 6.890625 -2.894531 6.984375 -3.40625 C 7.085938 -3.925781 7.140625 -4.640625 7.140625 -5.546875 C 7.140625 -6.453125 7.085938 -7.160156 6.984375 -7.671875 C 6.890625 -8.191406 6.722656 -8.554688 6.484375 -8.765625 C 6.253906 -8.984375 5.925781 -9.09375 5.5 -9.09375 C 5.082031 -9.09375 4.753906 -8.984375 4.515625 -8.765625 C 4.273438 -8.554688 4.101562 -8.191406 4 -7.671875 C 3.90625 -7.160156 3.859375 -6.453125 3.859375 -5.546875 C 3.859375 -4.640625 3.90625 -3.925781 4 -3.40625 C 4.101562 -2.894531 4.273438 -2.53125 4.515625 -2.3125 C 4.753906 -2.101562 5.082031 -2 5.5 -2 Z M 5.5 -2 "/></g></g><g style="fill:#f9afa6;fill-opacity:1;"><g transform="translate(264.973208, 230.798392)"><path style="stroke:none" d="M 11.28125 -11.09375 C 12.1875 -11.09375 12.640625 -10.640625 12.640625 -9.734375 C 12.640625 -9.035156 12.632812 -8.335938 12.625 -7.640625 C 12.625 -6.941406 12.625 -6.242188 12.625 -5.546875 C 12.625 -4.847656 12.625 -4.148438 12.625 -3.453125 C 12.632812 -2.753906 12.640625 -2.054688 12.640625 -1.359375 C 12.640625 -0.453125 12.1875 0 11.28125 0 L 10.984375 0 C 10.078125 0 9.625 -0.453125 9.625 -1.359375 C 9.632812 -2.054688 9.640625 -2.753906 9.640625 -3.453125 C 9.648438 -4.148438 9.65625 -4.847656 9.65625 -5.546875 L 9.640625 -7.65625 L 9.578125 -7.65625 L 7.765625 -2.390625 C 7.503906 -1.648438 7.113281 -1.28125 6.59375 -1.28125 C 6.0625 -1.28125 5.675781 -1.65625 5.4375 -2.40625 L 3.765625 -7.65625 L 3.6875 -7.65625 C 3.695312 -6.6875 3.707031 -5.832031 3.71875 -5.09375 C 3.726562 -4.363281 3.738281 -3.695312 3.75 -3.09375 C 3.769531 -2.5 3.789062 -1.925781 3.8125 -1.375 C 3.832031 -0.925781 3.726562 -0.582031 3.5 -0.34375 C 3.28125 -0.113281 2.957031 0 2.53125 0 C 2.101562 0 1.773438 -0.113281 1.546875 -0.34375 C 1.316406 -0.582031 1.207031 -0.921875 1.21875 -1.359375 C 1.226562 -4.148438 1.226562 -6.941406 1.21875 -9.734375 C 1.207031 -10.171875 1.316406 -10.503906 1.546875 -10.734375 C 1.785156 -10.972656 2.125 -11.09375 2.5625 -11.09375 L 4.03125 -11.09375 C 4.800781 -11.09375 5.316406 -10.734375 5.578125 -10.015625 L 6.953125 -6.390625 L 8.109375 -9.96875 C 8.347656 -10.71875 8.859375 -11.09375 9.640625 -11.09375 Z M 11.28125 -11.09375 "/></g></g><g style="fill:#f9afa6;fill-opacity:1;"><g transform="translate(282.009866, 230.798392)"><path style="stroke:none" d="M 4.1875 -2.125 C 4.65625 -2.132812 5.125 -2.140625 5.59375 -2.140625 C 6.0625 -2.140625 6.519531 -2.144531 6.96875 -2.15625 C 7.882812 -2.15625 8.34375 -1.800781 8.34375 -1.09375 C 8.34375 -0.363281 7.882812 0 6.96875 0 L 2.5625 0 C 2.125 0 1.785156 -0.113281 1.546875 -0.34375 C 1.316406 -0.582031 1.207031 -0.921875 1.21875 -1.359375 C 1.21875 -2.066406 1.21875 -2.769531 1.21875 -3.46875 C 1.226562 -4.164062 1.234375 -4.859375 1.234375 -5.546875 C 1.234375 -6.242188 1.226562 -6.941406 1.21875 -7.640625 C 1.21875 -8.335938 1.21875 -9.035156 1.21875 -9.734375 C 1.207031 -10.171875 1.316406 -10.503906 1.546875 -10.734375 C 1.785156 -10.972656 2.125 -11.09375 2.5625 -11.09375 L 6.8125 -11.09375 C 7.71875 -11.09375 8.171875 -10.734375 8.171875 -10.015625 C 8.171875 -9.285156 7.71875 -8.921875 6.8125 -8.921875 C 6.382812 -8.929688 5.945312 -8.9375 5.5 -8.9375 C 5.0625 -8.9375 4.625 -8.941406 4.1875 -8.953125 L 4.1875 -6.515625 C 4.53125 -6.523438 4.867188 -6.53125 5.203125 -6.53125 C 5.535156 -6.53125 5.859375 -6.535156 6.171875 -6.546875 C 7.078125 -6.546875 7.53125 -6.1875 7.53125 -5.46875 C 7.53125 -4.75 7.078125 -4.390625 6.171875 -4.390625 C 5.859375 -4.398438 5.535156 -4.40625 5.203125 -4.40625 C 4.867188 -4.40625 4.53125 -4.410156 4.1875 -4.421875 Z M 4.1875 -2.125 "/></g></g></g></svg>